<?xml version="1.0" encoding="utf-8"?>
<!-- Generator: Adobe Illustrator 25.4.1, SVG Export Plug-In . SVG Version: 6.00 Build 0)  -->
<svg version="1.0" id="illustration" xmlns="http://www.w3.org/2000/svg" xmlns:xlink="http://www.w3.org/1999/xlink" x="0px"
	 y="0px" viewBox="0 0 600 400" style="enable-background:new 0 0 600 400;" xml:space="preserve">
<style type="text/css">
	.st0{display:none;clip-path:url(#SVGID_00000042694523264190114900000008310629058973944706_);fill:#FFFFFF;}
	.st1{display:none;clip-path:url(#SVGID_00000042694523264190114900000008310629058973944706_);}
	.st2{display:inline;fill:#F1F1F4;}
	.st3{clip-path:url(#SVGID_00000042694523264190114900000008310629058973944706_);fill:#E0F3FF;}
	.st4{clip-path:url(#SVGID_00000042694523264190114900000008310629058973944706_);}
	.st5{fill:url(#SVGID_00000040554383568623986630000006159385889936190868_);}
	.st6{fill:url(#SVGID_00000116207633368119525410000015124608912581567397_);}
	.st7{fill:#E5E2FF;}
	.st8{fill:url(#SVGID_00000010989456510984386460000012805575907088110230_);}
	.st9{opacity:0.62;fill:url(#SVGID_00000176022274526488842200000017918661950577889938_);}
	.st10{opacity:0.62;fill:url(#SVGID_00000133497874587885632930000001608203479131708291_);}
	.st11{opacity:0.5;fill:url(#SVGID_00000078018538751333296580000008080449397079656338_);}
	.st12{fill:#FFFFFF;}
	.st13{fill:url(#SVGID_00000155139803338989339850000003872119636171787448_);}
	.st14{opacity:0.5;fill:url(#SVGID_00000008845169430028169870000009357862519537559436_);}
	.st15{opacity:0.5;fill:url(#SVGID_00000119096759869921977550000006209478694387998910_);}
	.st16{fill:url(#SVGID_00000060024265060053775180000017105249995755329961_);}
	.st17{fill:url(#SVGID_00000150807051866262972770000015511723125049511595_);}
	.st18{opacity:0.76;fill:url(#SVGID_00000072255783465430370730000004194998883208531858_);}
	.st19{opacity:0.76;fill:url(#SVGID_00000003090257726543076580000009220294503774005654_);}
	.st20{opacity:0.76;fill:url(#SVGID_00000000919417281594729990000007177210064811867535_);}
	.st21{fill:#FE9083;}
	.st22{fill:url(#SVGID_00000164489129899428020210000011710069729609906844_);}
	.st23{opacity:0.5;fill:url(#SVGID_00000031208362214224304840000017824989810298491536_);}
	.st24{fill:url(#SVGID_00000088132868018665221200000008361760649446310288_);}
	.st25{opacity:0.5;fill:url(#SVGID_00000113336602298861002070000012274130571538669711_);}
	.st26{fill:url(#SVGID_00000053512179782462128200000013637459706195628928_);}
	.st27{fill:url(#SVGID_00000148636893464484611380000011778256821999078308_);}
	.st28{fill:#CB4D7A;}
	.st29{fill:#EE8183;}
	.st30{fill:url(#SVGID_00000098179613878861133870000012313685895642765756_);}
	.st31{opacity:0.6;fill:url(#SVGID_00000000922380418303844240000012331157297954041511_);}
	.st32{fill:url(#SVGID_00000121247504169897674960000008327272764060297380_);}
	.st33{fill:#E28183;}
	.st34{opacity:0.91;fill:url(#SVGID_00000034782607332541050190000011482970381344742554_);}
	.st35{fill:url(#SVGID_00000064332819110342454880000015790813385055903158_);}
	.st36{opacity:0.6;fill:url(#SVGID_00000038404875795050063890000001396153176238756229_);}
	.st37{fill:url(#SVGID_00000129206923952122579360000011862436016899292048_);}
	.st38{fill:url(#SVGID_00000100375705423841437380000013088041813301670539_);}
	.st39{opacity:0.91;fill:url(#SVGID_00000072239416724217385440000004215099904800326333_);}
	.st40{opacity:0.5;fill:url(#SVGID_00000090992355383771123560000008334120891658400190_);}
	.st41{opacity:0.5;fill:url(#SVGID_00000034812124964897664860000014920483199386510000_);}
	.st42{opacity:0.5;fill:url(#SVGID_00000085957517389831859900000016503826769909012872_);}
	.st43{opacity:0.5;fill:url(#SVGID_00000070836231239753779150000015279880919485843076_);}
	.st44{opacity:0.5;fill:url(#SVGID_00000161595658110518949070000005340574423039086772_);}
	.st45{opacity:0.5;fill:url(#SVGID_00000102531577254161438340000007610142092048405680_);}
	.st46{opacity:0.5;fill:url(#SVGID_00000080208269252220649720000013049073052306622910_);}
	.st47{opacity:0.5;fill:url(#SVGID_00000029034591640296251640000005898010219239910581_);}
	.st48{opacity:0.5;fill:url(#SVGID_00000039127446510507832860000009305845163640006291_);}
	.st49{opacity:0.76;fill:url(#SVGID_00000009578447061352845530000012275539178560570754_);}
	.st50{opacity:0.5;fill:url(#SVGID_00000024703218363139235900000008542717650780507325_);}
	.st51{opacity:0.3;fill:url(#SVGID_00000087401158416918575610000010056501136963260090_);}
	.st52{opacity:0.5;fill:url(#SVGID_00000098917157275666875760000011979931661871313311_);}
	.st53{opacity:0.5;fill:url(#SVGID_00000167385363110852965130000004039119161920345229_);}
	.st54{opacity:0.5;fill:url(#SVGID_00000101067132804710341800000005278905690604681869_);}
	.st55{opacity:0.5;fill:url(#SVGID_00000183960301807726244840000018147850045965286306_);}
	.st56{fill:url(#SVGID_00000026157619741487879900000009039637372684026809_);}
	.st57{opacity:0.5;fill:url(#SVGID_00000140711319694239936090000001952318994123639438_);}
	.st58{opacity:0.3;fill:url(#SVGID_00000009563347890837931080000008419787063069464721_);}
	.st59{opacity:0.5;fill:url(#SVGID_00000085219931167351136480000002926595018525288863_);}
	.st60{opacity:0.5;fill:url(#SVGID_00000111167810666500701600000002763609390736233406_);}
	.st61{opacity:0.5;fill:url(#SVGID_00000178173300826140138460000002532368366395919012_);}
	.st62{opacity:0.5;fill:#7A4AC0;}
	.st63{fill:url(#SVGID_00000055665422515727111660000000357623002581493132_);}
	.st64{fill:url(#SVGID_00000121255766646530405140000018387917681156107651_);}
	.st65{fill:url(#SVGID_00000044876636007027618120000000768835093148565417_);}
	.st66{opacity:0.6;fill:url(#SVGID_00000147905518010262410010000012210515903656356258_);}
	.st67{fill:#38368E;}
	.st68{fill:url(#SVGID_00000168806685602566314360000006539925151080253060_);}
	.st69{fill:url(#SVGID_00000003801965338496110310000011799322207282712250_);}
	.st70{fill:#FFEBED;}
	.st71{fill:#7F9EC9;}
	.st72{fill:#131163;}
	.st73{fill:#C6659C;}
	.st74{fill:#CB5F7D;}
	.st75{fill:#9F4A8B;}
	.st76{fill:#FFBCAF;}
	.st77{opacity:0.6;fill:url(#SVGID_00000025400653875298700370000010708544362229403527_);}
	.st78{fill:url(#SVGID_00000174570024316960855230000017781763107814675599_);}
	.st79{fill:#D2726C;}
	.st80{opacity:0.6;fill:url(#SVGID_00000105400602739521389770000016396420559005765034_);}
	.st81{opacity:0.6;fill:url(#SVGID_00000067208148681252104200000016286734457662296494_);}
	.st82{opacity:0.5;fill:url(#SVGID_00000013181620765496823480000016402024453845100726_);}
	.st83{fill:url(#SVGID_00000147206470823154679560000018391885944306566286_);}
	.st84{fill:url(#SVGID_00000069380174901921110570000008284224907240686999_);}
	.st85{fill:url(#SVGID_00000141426098357612648510000002931631876931170433_);}
	.st86{opacity:0.8;fill:url(#SVGID_00000075126697210906573390000011037411279489652157_);}
	.st87{opacity:0.8;fill:url(#SVGID_00000135687207102629199200000001221962059910665137_);}
	.st88{fill:#34C7FF;}
	.st89{fill:url(#SVGID_00000171683757602437589200000004626709777322721415_);}
	.st90{fill:url(#SVGID_00000037690961499200287210000000383705773823027386_);}
	.st91{fill:url(#SVGID_00000017500426724966258310000012700402010490361272_);}
	.st92{opacity:0.89;fill:#FFFFFF;}
	.st93{font-family:'Bauhaus93';}
	.st94{font-size:12px;}
	.st95{opacity:0.6;fill:#36D1F7;}
	.st96{fill:#744CA2;}
	.st97{opacity:0.6;fill:url(#SVGID_00000052065027079141701630000006444737165083117229_);}
	.st98{opacity:0.3;fill:url(#SVGID_00000030454075706436642300000002489473184559782079_);}
	.st99{opacity:0.3;fill:url(#SVGID_00000069387441187963731330000005156794235913633945_);}
	.st100{opacity:0.3;fill:url(#SVGID_00000155147150737565835490000009196639876704056454_);}
	.st101{opacity:0.3;fill:url(#SVGID_00000146489313392318295030000007479047221841069737_);}
	.st102{fill:#D1D4FB;}
	.st103{fill:#E0FFFF;}
	.st104{fill:url(#SVGID_00000176007817303319607680000012429201697554833301_);}
	.st105{fill:url(#SVGID_00000134240071587577212900000000803309439372605868_);}
	.st106{opacity:0.81;fill:url(#SVGID_00000053513855955915636360000001560309299942730376_);}
	.st107{fill:#473DA2;}
	
		.st108{clip-path:url(#SVGID_00000042694523264190114900000008310629058973944706_);fill:url(#SVGID_00000105387036063048498140000007335727525411543183_);}
	
		.st109{clip-path:url(#SVGID_00000042694523264190114900000008310629058973944706_);fill:url(#SVGID_00000168095128924431503940000010208122699004827039_);}
	
		.st110{clip-path:url(#SVGID_00000042694523264190114900000008310629058973944706_);fill:url(#SVGID_00000136402365340981799700000013636873821936386227_);}
	
		.st111{clip-path:url(#SVGID_00000042694523264190114900000008310629058973944706_);fill:url(#SVGID_00000106132175052849493630000018027418053245084064_);}
	
		.st112{clip-path:url(#SVGID_00000042694523264190114900000008310629058973944706_);fill:url(#SVGID_00000046327390295139677980000007646037031398378624_);}
	
		.st113{clip-path:url(#SVGID_00000042694523264190114900000008310629058973944706_);fill:url(#SVGID_00000174595884569315589900000009883985552637588624_);}
	.st114{opacity:0.73;fill:url(#SVGID_00000053526012246346775000000017483266746108268714_);}
	.st115{fill:#953DA2;}
	.st116{opacity:0.73;fill:url(#SVGID_00000147929890776665516240000011880822026457321886_);}
	.st117{fill-rule:evenodd;clip-rule:evenodd;fill:url(#SVGID_00000118379256749891955930000015933381378991869862_);}
	.st118{fill-rule:evenodd;clip-rule:evenodd;fill:url(#SVGID_00000101826048409841678680000012480494554692052901_);}
	.st119{fill-rule:evenodd;clip-rule:evenodd;fill:url(#SVGID_00000164508852624185433400000017511804477592513171_);}
	.st120{opacity:0.5;fill-rule:evenodd;clip-rule:evenodd;fill:#601734;}
	.st121{fill-rule:evenodd;clip-rule:evenodd;fill:#B3D9FF;}
	.st122{clip-path:url(#SVGID_00000042694523264190114900000008310629058973944706_);fill:#FF1D9C;}
	.st123{clip-path:url(#SVGID_00000042694523264190114900000008310629058973944706_);fill:#6877FF;}
	.st124{clip-path:url(#SVGID_00000042694523264190114900000008310629058973944706_);fill:#4F31E0;}
	.st125{fill-rule:evenodd;clip-rule:evenodd;fill:url(#SVGID_00000047767927860507620430000005282413528879580565_);}
	.st126{fill-rule:evenodd;clip-rule:evenodd;fill:url(#SVGID_00000011724264538673377000000018332985243824492734_);}
	.st127{fill-rule:evenodd;clip-rule:evenodd;fill:url(#SVGID_00000008850142705516213210000000155210212461076101_);}
	.st128{fill-rule:evenodd;clip-rule:evenodd;fill:url(#SVGID_00000160152769784811702980000016863117336814138525_);}
</style>
<g>
	<defs>
		<rect id="SVGID_1_" x="-3.9" width="600" height="400"/>
	</defs>
	<clipPath id="SVGID_00000004545968124113151770000008396291463156663176_">
		<use xlink:href="#SVGID_1_"  style="overflow:visible;"/>
	</clipPath>
	
		<rect x="-3.9" style="display:none;clip-path:url(#SVGID_00000004545968124113151770000008396291463156663176_);fill:#FFFFFF;" width="600" height="400"/>
	<g style="display:none;clip-path:url(#SVGID_00000004545968124113151770000008396291463156663176_);">
		<path class="st2" d="M144.31,196.1c0.01-0.25,0.13-0.36,0.35-0.36l6.71,0.2c0.66,0.02,1.23,0.12,1.69,0.3
			c0.46,0.18,0.83,0.43,1.11,0.75c0.28,0.32,0.47,0.69,0.59,1.14c0.12,0.44,0.17,0.93,0.15,1.47l-0.06,1.84
			c-0.02,0.54-0.1,1.03-0.24,1.46c-0.14,0.43-0.36,0.8-0.66,1.1c-0.3,0.3-0.68,0.52-1.15,0.68c-0.47,0.15-1.04,0.22-1.7,0.2
			l-3.61-0.11l-0.75-2.11l-0.1,0l-0.06,2.09l-2.53-0.08L144.31,196.1z M146.65,202.43l4.29,0.13c0.48,0.01,0.83-0.08,1.04-0.29
			c0.21-0.21,0.32-0.58,0.34-1.12l0.05-1.5c0.02-0.56-0.07-0.94-0.27-1.15c-0.2-0.21-0.54-0.32-1.02-0.33l-4.1-0.12
			c-0.06,0-0.1,0.02-0.14,0.05c-0.03,0.04-0.05,0.08-0.05,0.13L146.65,202.43z"/>
		<path class="st2" d="M158.54,199.93l-0.09,0l-0.08,2.68c0,0.11,0.05,0.17,0.17,0.18l7.54,0.23l-0.07,2.32l-9.89-0.3
			c-0.24-0.01-0.35-0.13-0.35-0.38l0.25-8.21c0.01-0.25,0.13-0.36,0.37-0.36l9.61,0.29c0.25,0.01,0.37,0.13,0.36,0.38l-0.07,2.32
			l-2.37,0.8l-0.1,0l0.04-1.19c0-0.09-0.04-0.14-0.12-0.14l-5.07-0.15c-0.07,0-0.11,0.02-0.13,0.05c-0.02,0.04-0.03,0.08-0.03,0.12
			l-0.03,1.12l4.18,0.13l-0.06,1.82l-3.5-0.11L158.54,199.93z"/>
		<path class="st2" d="M175.31,199.77l-0.1,0l0.03-0.98c0-0.1-0.04-0.15-0.14-0.15l-4.72-0.14c-0.17,0-0.29,0.03-0.36,0.1
			c-0.07,0.07-0.1,0.18-0.11,0.32l-0.01,0.22c-0.01,0.17,0.02,0.28,0.08,0.33c0.06,0.05,0.17,0.09,0.33,0.12l5.53,0.94
			c0.35,0.06,0.65,0.15,0.89,0.25c0.24,0.11,0.44,0.25,0.59,0.42c0.15,0.17,0.25,0.38,0.31,0.63c0.06,0.25,0.08,0.54,0.07,0.88
			l-0.02,0.71c-0.01,0.37-0.07,0.69-0.17,0.97c-0.1,0.28-0.25,0.51-0.46,0.7c-0.21,0.19-0.49,0.32-0.82,0.41
			c-0.34,0.09-0.75,0.12-1.24,0.11l-7.96-0.24l0.07-2.32l7.14,0.22c0.21,0.01,0.36-0.03,0.43-0.1c0.07-0.08,0.11-0.21,0.12-0.41
			l0.01-0.25c0-0.16-0.02-0.27-0.07-0.33c-0.05-0.06-0.15-0.11-0.31-0.13l-5.34-0.84c-0.36-0.06-0.67-0.14-0.92-0.25
			c-0.25-0.11-0.46-0.24-0.62-0.41c-0.16-0.17-0.27-0.37-0.34-0.61c-0.07-0.24-0.09-0.52-0.08-0.85l0.02-0.63
			c0.02-0.65,0.21-1.14,0.56-1.49c0.36-0.35,0.93-0.51,1.74-0.48l7.95,0.24c0.25,0.01,0.38,0.14,0.37,0.4l-0.06,1.84L175.31,199.77z
			"/>
		<path class="st2" d="M178.67,205.72l0.27-8.94l2.53,0.08l-0.27,8.94L178.67,205.72z"/>
		<path class="st2" d="M190.59,202.25c0-0.13,0-0.27-0.01-0.41c-0.01-0.14-0.02-0.27-0.03-0.38l0-0.11l2.51,0.08l-0.13,4.39
			c-0.01,0.23-0.11,0.34-0.32,0.33l-6.73-0.2c-0.66-0.02-1.23-0.12-1.69-0.3c-0.46-0.18-0.83-0.43-1.11-0.75
			c-0.28-0.32-0.48-0.69-0.59-1.14c-0.12-0.44-0.17-0.93-0.15-1.47l0.06-1.84c0.02-0.54,0.1-1.03,0.24-1.46
			c0.14-0.43,0.36-0.8,0.66-1.1c0.3-0.3,0.68-0.52,1.15-0.68c0.47-0.15,1.04-0.22,1.7-0.2l6.69,0.2c0.24,0.01,0.35,0.13,0.35,0.38
			l-0.06,1.93l-2.37,0.79l-0.1,0l0.03-0.86c0-0.08-0.03-0.12-0.11-0.13l-4.27-0.13c-0.25-0.01-0.45,0.01-0.62,0.05
			c-0.17,0.04-0.31,0.11-0.42,0.22c-0.11,0.11-0.19,0.25-0.25,0.44c-0.05,0.18-0.09,0.41-0.1,0.68l-0.05,1.57
			c-0.02,0.54,0.07,0.92,0.27,1.14c0.2,0.22,0.54,0.34,1.02,0.35l4.24,0.13c0.09,0,0.14-0.04,0.14-0.14L190.59,202.25z"/>
		<path class="st2" d="M198.41,197.37c0.19,0.01,0.32,0.04,0.4,0.1c0.08,0.06,0.14,0.15,0.21,0.28l3.2,6.53
			c0.05,0.1,0.13,0.15,0.23,0.15l0.13,0c0.13,0,0.2-0.06,0.2-0.19l0.2-6.73l2.3,0.07l-0.26,8.59c-0.01,0.24-0.12,0.35-0.35,0.34
			l-3.64-0.11c-0.17,0-0.3-0.03-0.38-0.09c-0.08-0.05-0.16-0.15-0.23-0.29l-3.32-6.52c-0.05-0.1-0.12-0.15-0.23-0.15l-0.12,0
			c-0.13,0-0.2,0.06-0.2,0.19l-0.2,6.72l-2.3-0.07l0.26-8.58c0.01-0.25,0.12-0.36,0.35-0.36L198.41,197.37z"/>
	</g>
	
		<ellipse transform="matrix(0.7071 -0.7071 0.7071 0.7071 -60.6006 244.7572)" style="clip-path:url(#SVGID_00000004545968124113151770000008396291463156663176_);fill:#E0F3FF;" cx="265.15" cy="195.53" rx="155.02" ry="155.02"/>
	<g style="clip-path:url(#SVGID_00000004545968124113151770000008396291463156663176_);">
		
			<linearGradient id="SVGID_00000177483109975683826140000007559867223218528160_" gradientUnits="userSpaceOnUse" x1="136.3017" y1="273.5491" x2="136.3017" y2="202.3601" gradientTransform="matrix(0.906 -0.4233 0.4233 0.906 -75.0515 53.7421)">
			<stop  offset="0" style="stop-color:#DBCCFF"/>
			<stop  offset="1" style="stop-color:#D1BBFF"/>
		</linearGradient>
		<path style="fill:url(#SVGID_00000177483109975683826140000007559867223218528160_);" d="M151.19,185.61
			c-3.81-6.56-10.55-9.26-10.55-9.26l-2.35,1.1l5.29,9.6c-0.71,3.69-3.24,5.72-3.24,5.72l-0.01-0.02c0,0-3.18,0.64-6.47-1.19
			l-3.97-10.22l-2.35,1.1c0,0-2.25,6.9,0.33,14.04c0,0,1,2.31,1.18,2.52c0.93,1.09,3.36,2.34,8.06,2.05l16.2,30.91
			c-1.35,2.32-1.58,5.23-0.36,7.83c1.98,4.24,7.02,6.07,11.26,4.09c4.24-1.98,6.07-7.02,4.09-11.26c-1.22-2.61-3.6-4.3-6.24-4.75
			l-13.31-32.25c3.17-3.34,3.84-5.97,3.6-7.49C152.32,187.8,151.19,185.61,151.19,185.61z M164.52,238.92l-4.29,2.01l-3.88-2.71
			l0.41-4.72l4.29-2.01l3.88,2.71L164.52,238.92z"/>
		
			<linearGradient id="SVGID_00000093149955675593070480000012269108285438645180_" gradientUnits="userSpaceOnUse" x1="136.2975" y1="276.3264" x2="136.2975" y2="205.1374" gradientTransform="matrix(0.906 -0.4233 0.4233 0.906 -75.0515 53.7421)">
			<stop  offset="0" style="stop-color:#B5A6E7"/>
			<stop  offset="1" style="stop-color:#7760BF"/>
		</linearGradient>
		<path style="fill:url(#SVGID_00000093149955675593070480000012269108285438645180_);" d="M152.37,188.13
			c-3.81-6.56-10.55-9.26-10.55-9.26l-2.35,1.1l5.29,9.6c-0.71,3.69-3.24,5.72-3.24,5.72l-0.01-0.02c0,0-3.18,0.64-6.47-1.19
			l-3.97-10.22l-2.35,1.1c0,0-2.25,6.9,0.33,14.04c0,0,3.66,4.91,9.23,4.57l16.2,30.91c-1.35,2.32-1.58,5.23-0.36,7.83
			c1.98,4.24,7.02,6.07,11.26,4.09c4.24-1.98,6.07-7.02,4.09-11.26c-1.22-2.61-3.6-4.3-6.24-4.75l-13.31-32.25
			C153.79,194.09,152.37,188.13,152.37,188.13z M165.7,241.44l-4.29,2.01l-3.88-2.71l0.41-4.72l4.29-2.01l3.88,2.71L165.7,241.44z"
			/>
		
			<rect x="128.02" y="181.76" transform="matrix(0.906 -0.4233 0.4233 0.906 -65.3696 71.9555)" class="st7" width="2.59" height="2.78"/>
		
			<rect x="138.76" y="176.76" transform="matrix(0.906 -0.4233 0.4233 0.906 -62.2459 76.034)" class="st7" width="2.59" height="2.78"/>
		
			<rect x="160.59" y="239.79" transform="matrix(0.906 -0.4233 0.4233 0.906 -86.7695 91.6533)" class="st7" width="4.74" height="2.78"/>
		<g>
			
				<linearGradient id="SVGID_00000113335692493999897330000012867117333919628448_" gradientUnits="userSpaceOnUse" x1="136.2974" y1="258.6279" x2="136.2974" y2="228.6205" gradientTransform="matrix(0.906 -0.4233 0.4233 0.906 -75.0515 53.7421)">
				<stop  offset="0" style="stop-color:#B5A6E7"/>
				<stop  offset="1" style="stop-color:#7760BF"/>
			</linearGradient>
			<path style="fill:url(#SVGID_00000113335692493999897330000012867117333919628448_);" d="M141.76,205.86l13.09,25.15
				c3.44,0.16,5.28-2.47,5.28-2.47l-10.65-26.29C144.7,202.08,141.76,205.86,141.76,205.86z M159.12,228.75
				c-0.38,0.33-0.96,0.77-1.69,1.11c-0.58,0.27-1.19,0.45-1.81,0.54l-13.11-24.63c0.64-0.57,1.74-1.41,3.15-2.07
				c1.06-0.49,2.14-0.81,3.24-0.96L159.12,228.75z"/>
			<path class="st7" d="M159.12,228.75l1.01-0.21c0,0-1.5,2.66-5.28,2.47l0.77-0.61C155.62,230.4,157.48,230.18,159.12,228.75z"/>
			
				<linearGradient id="SVGID_00000091009951613081721320000003054629268278128287_" gradientUnits="userSpaceOnUse" x1="132.039" y1="229.2211" x2="140.5557" y2="229.2211" gradientTransform="matrix(0.906 -0.4233 0.4233 0.906 -75.0515 53.7421)">
				<stop  offset="0" style="stop-color:#8B8BE0"/>
				<stop  offset="1" style="stop-color:#A177B7"/>
			</linearGradient>
			<path style="opacity:0.62;fill:url(#SVGID_00000091009951613081721320000003054629268278128287_);" d="M141.76,205.86l0.75-0.1
				c0,0,2.24-2.32,6.39-3.02l0.57-0.48c0,0-1.67-0.29-4.27,0.92C142.61,204.39,141.76,205.86,141.76,205.86z"/>
		</g>
		
			<linearGradient id="SVGID_00000056425144609200434120000011881857111940776614_" gradientUnits="userSpaceOnUse" x1="136.2974" y1="231.1982" x2="136.2974" y2="226.0426" gradientTransform="matrix(0.906 -0.4233 0.4233 0.906 -75.0515 53.7421)">
			<stop  offset="0" style="stop-color:#FFFFFF"/>
			<stop  offset="1" style="stop-color:#A177B7"/>
		</linearGradient>
		<path style="opacity:0.62;fill:url(#SVGID_00000056425144609200434120000011881857111940776614_);" d="M138.29,203.56
			c0,0,6.29-1.12,11.66-5.43l1.7,4.12c0,0-1.93-1.91-6.17-0.18c-4.95,2.02-4.68,6-4.68,6L138.29,203.56z"/>
		
			<linearGradient id="SVGID_00000016070906434440578370000007109785228254381974_" gradientUnits="userSpaceOnUse" x1="140.8017" y1="261.691" x2="140.8017" y2="228.6106" gradientTransform="matrix(0.906 -0.4233 0.4233 0.906 -75.0515 53.7421)">
			<stop  offset="0" style="stop-color:#000000"/>
			<stop  offset="1" style="stop-color:#FFFFFF"/>
		</linearGradient>
		<path style="opacity:0.5;fill:url(#SVGID_00000016070906434440578370000007109785228254381974_);" d="M151.65,202.26
			c-1.21-0.87-2.59-0.89-2.59-0.89l12.67,30.6l1.53-1.58L151.65,202.26z"/>
		<path class="st12" d="M151.65,202.26c0,0-1.33,4.09,2.49,6.03L151.65,202.26z"/>
	</g>
	<g style="clip-path:url(#SVGID_00000004545968124113151770000008396291463156663176_);">
		<g>
			
				<linearGradient id="SVGID_00000063594026718656125350000006493511289847099023_" gradientUnits="userSpaceOnUse" x1="276.3975" y1="400" x2="276.3975" y2="310.79">
				<stop  offset="0" style="stop-color:#6456C0"/>
				<stop  offset="1" style="stop-color:#5F2C95"/>
			</linearGradient>
			<path style="fill:url(#SVGID_00000063594026718656125350000006493511289847099023_);" d="M342.33,400h-47
				c-4.92-27.32-16.36-62.87-16.36-62.87c-2.78-1.65-8.21,0.38-8.21,0.38L253.58,400h-42.94c-2.28-38.56,18.82-82.33,18.82-82.33
				l-0.01-0.01c-0.07-0.15-0.74-1.49-0.56-2.39c0.07-0.39,0.79-1.13,1.6-1.86c1.16-1.06,2.54-2.12,2.54-2.12l80.11-0.5
				c0,0,0.81,0.41,1.84,1.03h0.01c1.75,1.06,4.12,2.7,4.12,3.9c0,1.65-0.65,2.72-0.81,2.96l-0.04,0.05
				C335.43,351.15,342.33,400,342.33,400z"/>
			
				<radialGradient id="SVGID_00000014600000222121504740000007093840474920114081_" cx="226.7654" cy="369.1622" r="27.0277" gradientTransform="matrix(0.6462 0.1491 -0.3852 1.6696 228.6228 -282.2475)" gradientUnits="userSpaceOnUse">
				<stop  offset="0" style="stop-color:#4B474B"/>
				<stop  offset="1" style="stop-color:#000000"/>
			</radialGradient>
			<path style="opacity:0.5;fill:url(#SVGID_00000014600000222121504740000007093840474920114081_);" d="M250.42,371.95
				c-5.75,24.92-18.23,43.32-27.88,41.1c-9.65-2.23-12.8-24.23-7.05-49.15c5.75-24.92,18.23-43.32,27.88-41.1
				C253.01,325.02,256.17,347.02,250.42,371.95z"/>
			
				<radialGradient id="SVGID_00000175319295121506670410000015292882998543006861_" cx="345.6638" cy="352.1948" r="27.0272" gradientTransform="matrix(0.6386 -0.179 0.4623 1.6499 -67.4027 -151.7454)" gradientUnits="userSpaceOnUse">
				<stop  offset="0" style="stop-color:#4B474B"/>
				<stop  offset="1" style="stop-color:#000000"/>
			</radialGradient>
			<path style="opacity:0.5;fill:url(#SVGID_00000175319295121506670410000015292882998543006861_);" d="M333.42,362.63
				c6.9,24.63,4.77,46.76-4.76,49.43c-9.53,2.67-22.85-15.13-29.76-39.76c-6.9-24.63-4.77-46.76,4.76-49.43
				C313.19,320.2,326.52,338,333.42,362.63z"/>
			<g>
				
					<linearGradient id="SVGID_00000081614517822252943070000008548320927588632210_" gradientUnits="userSpaceOnUse" x1="247.525" y1="368.6816" x2="270.9225" y2="368.6816">
					<stop  offset="0" style="stop-color:#9E8CEF"/>
					<stop  offset="1" style="stop-color:#CAAFEE"/>
				</linearGradient>
				<path style="fill:url(#SVGID_00000081614517822252943070000008548320927588632210_);" d="M248.02,400.04l-0.49-0.08
					c5.47-32.2,19.34-59.2,19.48-59.47l0.06-0.07l3.53-3.09l0.33,0.38l-3.5,3.06C266.8,341.97,253.37,368.51,248.02,400.04z"/>
			</g>
			<g>
				
					<linearGradient id="SVGID_00000163785588149022814620000011128424074353141640_" gradientUnits="userSpaceOnUse" x1="345.4283" y1="368.6826" x2="368.8277" y2="368.6826" gradientTransform="matrix(-1 0 0 1 647.6286 0)">
					<stop  offset="0" style="stop-color:#9E8CEF"/>
					<stop  offset="1" style="stop-color:#CAAFEE"/>
				</linearGradient>
				<path style="fill:url(#SVGID_00000163785588149022814620000011128424074353141640_);" d="M301.71,400.04
					c-5.36-31.55-19.16-58.35-19.78-59.54l-3.13-2.81l0.33-0.37l3.22,2.91c0.14,0.27,14.38,27.53,19.85,59.73L301.71,400.04z"/>
			</g>
			
				<linearGradient id="SVGID_00000108309732443198238340000010388546733283472056_" gradientUnits="userSpaceOnUse" x1="273.2578" y1="400" x2="273.2578" y2="310.79">
				<stop  offset="0" style="stop-color:#CCCCFF"/>
				<stop  offset="1" style="stop-color:#755CBB"/>
			</linearGradient>
			<path style="opacity:0.76;fill:url(#SVGID_00000108309732443198238340000010388546733283472056_);" d="M319.11,315.72
				c0,1.65-0.65,2.72-0.81,2.96l-0.04,0.05c-16.68,3.77-29.37,19.34-29.37,19.34c9.09,17.44,24.25,61.93,24.25,61.93h-17.81
				c-4.92-27.32-16.36-62.87-16.36-62.87c-2.78-1.65-8.21,0.38-8.21,0.38L253.58,400h-11.12c3.98-26.18,15.73-58.14,15.73-58.14
				c-11.55-13.45-28.73-24.19-28.73-24.19l-0.01-0.01l-2.04-1.28l1.48-1.11c7.43,7.13,31.39,16.44,32.13,16.73l-30.53-18.59
				c1.16-1.06,2.54-2.12,2.54-2.12l80.11-0.5c0,0,0.81,0.41,1.84,1.03l-21.88,12.04L319.11,315.72z"/>
			
				<linearGradient id="SVGID_00000147211960176679125260000007525663644453460388_" gradientUnits="userSpaceOnUse" x1="283.6434" y1="355.395" x2="283.6434" y2="331.0632">
				<stop  offset="0" style="stop-color:#CCCCFF"/>
				<stop  offset="1" style="stop-color:#755CBB"/>
			</linearGradient>
			<polygon style="opacity:0.76;fill:url(#SVGID_00000147211960176679125260000007525663644453460388_);" points="278.97,337.13 
				288.32,331.06 286.1,337.13 284.47,355.39 			"/>
			
				<linearGradient id="SVGID_00000098908699274703425780000016662406090462689450_" gradientUnits="userSpaceOnUse" x1="255.461" y1="346.4476" x2="255.461" y2="322.6091">
				<stop  offset="0" style="stop-color:#CCCCFF"/>
				<stop  offset="1" style="stop-color:#755CBB"/>
			</linearGradient>
			<polygon style="opacity:0.76;fill:url(#SVGID_00000098908699274703425780000016662406090462689450_);" points="270.76,337.51 
				261.02,332 240.16,322.61 266.72,340.16 268.3,346.45 			"/>
		</g>
		<path class="st21" d="M297.56,149.65c0.06,0.43,0.11,0.66,0.11,0.66c-0.49,2.04-1.05,3.93-1.66,5.66
			c-1.96,5.63-4.4,9.63-6.23,12.12c-1.59,2.15-2.72,3.18-2.72,3.18c-14.59-4.58-21.78-18.85-24.54-25.95
			c-0.02-0.03-0.03-0.07-0.04-0.11c-0.53-1.34-0.88-2.42-1.1-3.12c0,0,0,0,0-0.01c-0.17-0.56-0.25-0.87-0.25-0.87
			c0.06-0.12,0.12-0.25,0.18-0.37l0.03-0.05c0.24-0.5,0.48-1.01,0.7-1.5c1.91-4.18,3.18-8.09,4-11.17c0.71-2.62,1.09-4.64,1.27-5.71
			c0.09-0.55,0.13-0.85,0.13-0.85l6.8,3.59l23.43,12.4c-0.35,2.15-0.49,4.17-0.5,5.94c-0.02,1.25,0.02,2.37,0.09,3.32
			c0.07,1.16,0.19,2.08,0.28,2.68v0.01C297.54,149.56,297.55,149.6,297.56,149.65z"/>
		
			<linearGradient id="SVGID_00000105413223381932438700000001262525580566686351_" gradientUnits="userSpaceOnUse" x1="279.64" y1="176.45" x2="279.64" y2="140.84">
			<stop  offset="0" style="stop-color:#D5CDF8"/>
			<stop  offset="1" style="stop-color:#F3EDFB"/>
		</linearGradient>
		<path style="fill:url(#SVGID_00000105413223381932438700000001262525580566686351_);" d="M291.06,172.84
			c-1.35,1.34-2.94,2.54-4.84,3.54c-0.04,0.03-0.08,0.05-0.12,0.07c0,0-0.05-0.03-0.14-0.08l-0.01-0.01
			c-0.51-0.31-2.25-1.38-4.59-3.14c-6.12-4.61-16.34-13.93-19.26-26.49c-0.01-0.02-0.01-0.03-0.02-0.05
			c-0.34-1.49-0.58-3.01-0.7-4.59c0,0,0,0,0-0.01c-0.03-0.41-0.06-0.82-0.07-1.24c0,0,2.03,4.77,5.55,9.92
			c4.14,6.06,10.35,12.67,17.77,12.71c6.42,0.04,9.71-4.35,11.38-8.4c0.71-1.72,1.13-3.37,1.35-4.6c0.01-0.01,0.01-0.02,0.01-0.02
			c0.07-0.36,0.12-0.68,0.17-0.95v-0.01c0.02-0.14,0.04-0.26,0.05-0.37c0.06-0.45,0.08-0.71,0.08-0.71S300.13,163.77,291.06,172.84z
			"/>
		
			<linearGradient id="SVGID_00000008140799965518660670000012720305639026631554_" gradientUnits="userSpaceOnUse" x1="261.3079" y1="158.61" x2="297.9721" y2="158.61">
			<stop  offset="0" style="stop-color:#CCCCFF"/>
			<stop  offset="1" style="stop-color:#755CBB"/>
		</linearGradient>
		<path style="opacity:0.5;fill:url(#SVGID_00000008140799965518660670000012720305639026631554_);" d="M291.06,172.84
			c-1.35,1.34-2.94,2.54-4.84,3.54h-0.12l-0.14-0.01l-0.01-0.01c-0.51-0.31-2.25-1.38-4.59-3.14c-6.12-4.61-16.34-13.93-19.26-26.49
			c-0.01-0.02-0.01-0.03-0.02-0.05c-0.34-1.49-0.58-3.01-0.7-4.59c0,0,0,0,0-0.01c-0.03-0.41-0.06-0.82-0.07-1.24
			c0,0,2.03,4.77,5.55,9.92c0,0,4.04,11.1,12.78,16.6c4.38,2.75,7.7,2.35,10.14,0.73c2.44-1.61,4.02-4.42,4.95-6.54
			c0.93-2.13,1.23-4.12,1.28-5.58c0.01-0.33,0.01-0.63,0-0.9c0.71-1.72,1.13-3.37,1.35-4.6c0.01-0.01,0.01-0.02,0.01-0.02
			c0.07-0.36,0.12-0.68,0.17-0.95v-0.01c0.02-0.14,0.04-0.26,0.05-0.37c0.06-0.45,0.08-0.71,0.08-0.71S300.13,163.77,291.06,172.84z
			"/>
		
			<linearGradient id="SVGID_00000088832170317657314630000004637477897639455929_" gradientUnits="userSpaceOnUse" x1="269.1561" y1="318.7292" x2="269.1561" y2="139.29">
			<stop  offset="0" style="stop-color:#9E8CEF"/>
			<stop  offset="1" style="stop-color:#CAAFEE"/>
		</linearGradient>
		<path style="fill:url(#SVGID_00000088832170317657314630000004637477897639455929_);" d="M347.22,263.53
			c-0.11,0.05-0.16,0.08-0.16,0.08c-0.82,0.1-3.37-0.46-6.71-3.35l-0.01-0.01c0-0.01-0.01-0.02-0.03-0.03
			c-0.01-0.01-0.02-0.03-0.04-0.04c-2.8-2.45-6.16-6.54-9.51-13.24c-6.7-13.39-8.62-22.33-8.93-23.89l-0.04-0.24l-3.91,6.2
			c-2.65,7.97-7.67,40.95-7.58,42.37c0.09,1.42,4.45,8.34,4.36,9.19c0,0,0,0.01-0.01,0.02c-0.12,0.86-2.08,2.75-2.64,4.81
			c-0.38,1.37,2.28,5.69,4.15,8.92v0.01c0.97,1.68,1.72,3.06,1.72,3.58c0,1.51-4.74,8.9-4.74,8.9v3.98l-0.07,0.07l-0.22,0.2
			l-0.18,0.15c-1.8,1.42-9.43,6.07-33.27,7.35c-28.25,1.51-47.07-7.58-47.07-7.58l1.42-3.89c0,0-1.32-1.13-1.42-1.7
			c-0.09-0.57,1.04-1.9,1.04-1.9s-2.84-1.51-2.84-3.41c0-1.89,5.69-7.76,5.5-12.79c-0.19-5.02-4.55-9.47-5.12-12.31
			c-0.57-2.84,7.39-9.85,7.39-9.85c-6.82-21.6-8.15-50.59-8.15-50.59l-1.32-1.52c0,0-8.15,18.57-15.54,27.66
			c-0.88,1.08-1.81,2.15-2.77,3.18c-2.06,2.23-4.25,4.32-6.36,6.15c-5.12,4.46-9.77,7.39-10.95,7.16c-1.9-0.38-9.48-15.35-9.13-30.7
			c0.16-7.3,4.56-15.47,9.13-22.02c0.49-0.7,0.98-1.39,1.48-2.06c3.24-4.41,6.35-7.87,7.84-9.45c0.58-0.62,0.91-0.95,0.91-0.95
			s-1.04-3.35-1.75-6.26c-0.01-0.07-0.03-0.14-0.05-0.21c0-0.03-0.01-0.07-0.02-0.1c-0.01-0.05-0.02-0.07-0.02-0.07
			c-0.42-1.79-0.68-3.34-0.44-3.72c0.63-1.01,4.3-2.15,4.93-2.9c0.63-0.76,3.28-13.52,5.3-14.91c1.94-1.33,5.35-2.3,16.72-6.77
			c0.56-0.22,1.13-0.44,1.73-0.68c12.75-5.05,25.26-11.18,25.26-11.18l4.8-5.9h2.14l-0.7,1.5l-0.03,0.05
			c0.34,1.52,0.73,2.98,1.17,4.37c0.01,0.04,0.02,0.08,0.04,0.11c6.6,20.82,23.58,27.53,23.58,27.53
			c11.8-8.71,11.57-22.54,11.57-22.54v-1.9l2.21,0.66l1.51,3.6c0,0,2.56,3.98,12.7,8.44c1.75,0.77,3.63,1.74,5.57,2.85
			c9.28,5.27,19.6,13.42,20.39,15.15c0.08,0.18,0.17,0.46,0.27,0.86v0.01c1.09,4.28,3.33,20.31,5.41,26.03
			c1.3,3.57,3.35,5.54,4.86,6.56c0.01,0.01,0.01,0.01,0.02,0.01c1.12,0.77,1.94,1.01,1.94,1.01c0.16,0.88,0.31,1.75,0.45,2.61
			C357.35,243.62,349.08,262.23,347.22,263.53z"/>
		
			<linearGradient id="SVGID_00000033358328201919699730000006537883642166874267_" gradientUnits="userSpaceOnUse" x1="194.6879" y1="206.915" x2="238.3878" y2="206.915">
			<stop  offset="0" style="stop-color:#CCCCFF"/>
			<stop  offset="1" style="stop-color:#755CBB"/>
		</linearGradient>
		<path style="opacity:0.5;fill:url(#SVGID_00000033358328201919699730000006537883642166874267_);" d="M238.39,211.77l-8.24,2.77
			l-1.32-1.52c0,0-8.15,18.57-15.54,27.66c-0.88,1.08-1.81,2.15-2.77,3.18c-2.06,2.23-4.25,4.32-6.36,6.15l-6.28-27.07l-3.19-20.55
			c3.24-4.41,6.35-7.87,7.84-9.45c0.58-0.62,0.91-0.95,0.91-0.95s-1.04-3.35-1.75-6.26c-0.01-0.07-0.03-0.14-0.05-0.21
			c0-0.03-0.01-0.07-0.02-0.1c-0.01-0.05-0.02-0.07-0.02-0.07c-0.42-1.79-0.68-3.34-0.44-3.72c0.63-1.01,4.3-2.15,4.93-2.9
			c0.63-0.76,3.28-13.52,5.3-14.91c0,0-1.32,12.25,5.69,27.79l3.41,4.8l9.98,8.02C230.47,204.43,234.26,209.46,238.39,211.77z"/>
		
			<linearGradient id="SVGID_00000029016548679216419520000010442515248599836841_" gradientUnits="userSpaceOnUse" x1="193.3362" y1="257.17" x2="193.3362" y2="173.26">
			<stop  offset="0" style="stop-color:#9E8CEF"/>
			<stop  offset="1" style="stop-color:#DAC7F3"/>
		</linearGradient>
		<path style="fill:url(#SVGID_00000029016548679216419520000010442515248599836841_);" d="M214.55,233.93
			c-1.77,13.13-21.34,23.24-21.34,23.24c-4.36,0-9.23-7.58-13.65-16.93c-4.42-9.35-4.69-36.21-4.92-37.87
			c-0.24-1.66-2.7-4.98-2.85-6.4c-0.14-1.42,3.98-4.36,3.98-4.36l-0.03-0.07l-0.03-0.07c-0.43-0.92-2.85-6.11-2.68-7.06
			c0.19-1.04,4.82-3.31,4.82-3.31l0.29,5.11c0,0,10.78-2.04,14.43-10.39l0.64-2.56l1.8,1.2v10.99c0,0,0.37,1.71,0.94,1.71
			c0.57,0,4.77-2.1,5.65-1.81c0.89,0.29,1.76,6.17,2.94,6.92c1.17,0.76,4.3,2.94,4.77,3.98c0.21,0.47,0.23,2.16,0.25,4.15
			c0.03,2.44,0.05,5.32,0.41,6.94C210.64,210.27,216.32,220.79,214.55,233.93z"/>
		
			<linearGradient id="SVGID_00000070834176692096432090000004303878011490863759_" gradientUnits="userSpaceOnUse" x1="337.628" y1="232.9861" x2="393.9334" y2="232.9861">
			<stop  offset="0" style="stop-color:#A999F1"/>
			<stop  offset="1" style="stop-color:#DAC7F3"/>
		</linearGradient>
		<path style="fill:url(#SVGID_00000070834176692096432090000004303878011490863759_);" d="M393.54,222.68
			c-0.88,1.39-5.3,4.3-6.44,5.44c-1.14,1.13,0,4.87,0,4.87c-18.57,19.71-37.93,29.58-39.88,30.54c-0.11,0.05-0.16,0.08-0.16,0.08
			c-11.66-7.84-10.66-20.75-6.79-31.63c3.7-10.44,10.04-19.01,10.32-19.38l0.01-0.01c0,0,0,0,0.01-0.01
			c0.21-0.08,3.54-1.46,5.92-1.64c0.79-0.06,1.51,0.25,2.19,0.68c1.42,0.88,2.62,2.27,3.78,1.69c1.71-0.86,5.53-9.89,8.12-10.14
			c1.81-0.17,4.32,1.67,5.99,2.72c0.73,0.46,1.3,0.77,1.58,0.69c0.95-0.25,4.17-4.11,4.43-4.21c0.25-0.11,1.72,0.97,1.72,0.97
			l-1.03,1.28c1.58,9.1,6.76,15.22,6.76,15.22l3.47-5.08C393.54,214.76,394.43,221.29,393.54,222.68z"/>
		<path class="st28" d="M297.61,149.26c-0.02,0.13-0.04,0.26-0.05,0.39c-0.05,0.27-0.11,0.53-0.19,0.8c0,0,0,0.01-0.01,0.02
			c-1.19,4.41-6,8.92-12.07,6.75c-6.63-2.37-19.25-29.1-19.25-29.1l1.27-5.71l29.95,24.4l0.33,2.31L297.61,149.26z"/>
		<g>
			<path class="st29" d="M197.88,144.37c0,0-1.83-10.11-1.01-17.56c0.82-7.45-0.21-15.92-0.21-15.92s-1.81-0.76-3.14,0
				c-1.33,0.76-4.42,8.46-3.03,14.65c1.39,6.19,0.32,21.03,0.32,21.03h-2.08l-4.55-6.25l-2.21-0.63c0,0-12.73,12-12.54,19.14
				l1.66,6.35l15.67-0.54l10.23-11.68L197.88,144.37z"/>
			
				<linearGradient id="SVGID_00000132773841504836735620000016873316056574227843_" gradientUnits="userSpaceOnUse" x1="175.021" y1="161.8185" x2="175.021" y2="139.694">
				<stop  offset="0.016" style="stop-color:#FFC2A9"/>
				<stop  offset="1" style="stop-color:#FF9595"/>
			</linearGradient>
			<path style="fill:url(#SVGID_00000132773841504836735620000016873316056574227843_);" d="M181.96,139.69
				c0,0,0.33,7.96,2.11,14.78c0,0-0.3,2.79-3.57,2.98l-0.81-0.9c0,0-0.57,3.17-3.46,3.41l-2.75-2.75l0.71,2.27
				c0,0-0.99,2.42-3.6,2.32c0,0-4.36-3.41-4.64-7.86l4.31-3.65v-2.79l5.12-3.6l0.09-2.04C175.49,141.87,178.49,139.65,181.96,139.69
				z"/>
			
				<linearGradient id="SVGID_00000030470125701504116410000010978955516249347459_" gradientUnits="userSpaceOnUse" x1="188.9529" y1="161.2947" x2="188.9529" y2="124.6715">
				<stop  offset="0" style="stop-color:#FFEADB"/>
				<stop  offset="0.9944" style="stop-color:#C27CB6"/>
			</linearGradient>
			<path style="opacity:0.6;fill:url(#SVGID_00000030470125701504116410000010978955516249347459_);" d="M197.05,124.67
				c0,0-0.77,1.95-1.86,2.71c-1.09,0.76-4.25,1.34-4.25,1.34l-0.14,17.86h-2.08l-4.55-6.25c0,0,2.31,3.57,2.45,6.25l-1.8,0.88
				l-1.56-5.35l-0.74,3.85l0.74,4.79c0,0,2.7-2.32,7.58-2.41l0.73,1.33c0,0-8.83,7.31-10.86,11.62c0,0,4.36-5.54,14.31-11.65
				l0.95-2.94l1.26-7.01C197.21,139.69,196.02,129.59,197.05,124.67z"/>
			
				<linearGradient id="SVGID_00000095324161937766854690000003913458848955179944_" gradientUnits="userSpaceOnUse" x1="187.7646" y1="186.21" x2="187.7646" y2="129.75">
				<stop  offset="0.016" style="stop-color:#FFC2A9"/>
				<stop  offset="1" style="stop-color:#FF9595"/>
			</linearGradient>
			<path style="fill:url(#SVGID_00000095324161937766854690000003913458848955179944_);" d="M204.45,155.8
				c-0.82,2.46-9.41,12.69-10.36,14.91c-0.95,2.21-1.52,5.11-1.52,5.11c-4.22,9.13-14.43,10.39-14.43,10.39l-0.47-8.24
				c0,0-5.49-3.16-6.42-4.89l-0.01-0.03l-0.11-0.29c-0.28-1.61-0.04-7.58-0.04-7.58l9.61-3.89c4.17-5.4,14.31-11.65,14.31-11.65
				l0.47-2.83c-7.28-3.58-6.06-14.41-4.83-15.74c1.23-1.32,3.5-1.32,3.5-1.32s2.66,8.71,4.36,12.79
				C200.22,146.61,205.27,153.34,204.45,155.8z"/>
			<path class="st33" d="M175.49,141.87c0,0,1.07,9.95,4.22,14.68c0,0-3.99-4.96-4.31-12.65L175.49,141.87z"/>
			<path class="st33" d="M170.27,147.51c0,0,1.04,8.01,5.97,12.46c0,0-4.36-2.18-5.97-9.66V147.51z"/>
			
				<linearGradient id="SVGID_00000163753122247171927390000013471460434280096930_" gradientUnits="userSpaceOnUse" x1="177.6678" y1="177.3993" x2="195.4198" y2="177.3993">
				<stop  offset="0.016" style="stop-color:#D1A1D6"/>
				<stop  offset="0.9944" style="stop-color:#BD89C4"/>
			</linearGradient>
			<path style="opacity:0.91;fill:url(#SVGID_00000163753122247171927390000013471460434280096930_);" d="M195.42,168.59
				c0,0-10.83,10.52-17.75,9.38l0.47,8.24c0,0,11.37-0.99,15.07-12.95C193.2,173.26,194.53,169.82,195.42,168.59z"/>
		</g>
		<g>
			
				<linearGradient id="SVGID_00000127725143774801238800000017733772334562507951_" gradientUnits="userSpaceOnUse" x1="395.094" y1="220.6" x2="395.094" y2="145.0987">
				<stop  offset="0.016" style="stop-color:#FFC2A9"/>
				<stop  offset="1" style="stop-color:#FF9595"/>
			</linearGradient>
			<path style="fill:url(#SVGID_00000127725143774801238800000017733772334562507951_);" d="M424.46,182.89
				c0,0-9.95,18.19-21.6,23.78h-3.98l-9.19,13.93c0,0-5.94-3.73-6.38-15.98c0,0,2.08-2.17,2.59-4.62c0,0-3.28-2.58-4.17-4.47
				c-0.88-1.9-1.2-7.58-1.83-9.92c-0.63-2.34-6-7.2-7.2-7.83s-6.63-0.95-6.63-0.95s-0.76-1.96,0-2.9c0.76-0.95,9.22-4.24,13.83-1.08
				c0,0,0.32,2.4,0.82,3.67c0.51,1.26,4.55,5.74,5.18,5.74c0.63,0,3.35-2.27,4.55-4.04c1.15-1.7,7.26-14.87,8.74-19.32
				c0.01-0.05,0.02-0.09,0.04-0.13c0.02-0.07,0.05-0.14,0.06-0.2c0.02-0.05,0.03-0.09,0.04-0.13c0.01-0.02,0.02-0.03,0.02-0.05
				c1.14-3.85,7.77-11.24,11.31-13.26c0,0,1.51-0.38,2.33,1.51c0,0-2.84,8.09-5.81,12.89c-0.5,0.81-1.04,1.76-1.6,2.78
				c0,0,0,0-0.01,0c-2.53,4.65-5.38,10.74-5.79,11.63l-0.05,0.11l1.58,0.81l4.27-4.05l4.38-4.15l10.05,10.61l-0.99,1.26l-3.14,4.03
				l1.59,0.29l3.7-4.09L424.46,182.89z"/>
			
				<linearGradient id="SVGID_00000180348802091742504520000003465444834462434187_" gradientUnits="userSpaceOnUse" x1="404.0137" y1="196.41" x2="404.0137" y2="158.9">
				<stop  offset="0" style="stop-color:#FFEADB"/>
				<stop  offset="0.9944" style="stop-color:#C27CB6"/>
			</linearGradient>
			<path style="opacity:0.6;fill:url(#SVGID_00000180348802091742504520000003465444834462434187_);" d="M422.13,186.76l-3.18,4.67
				c0,0-17.45-13.46-21.24-14.6c-3.79-1.14-5.18-0.38-5.18-0.38l-3.91,4.99c0,0,7.2,6.38,7.83,14.97c0,0-2.4-10.86-10.55-14.15
				c0.63,0,3.35-2.27,4.55-4.04c1.15-1.7,7.26-14.87,8.74-19.32c-0.2,0.76-0.46,2.24,0.16,3.41c0.86,1.59,5.92,0.09,6.22,0
				c0.01,0,0.01,0,0.01,0l-5.8,11.63l-0.05,0.11l1.58,0.81l4.27-4.05l-2.14,4.97l15.58,2.75l-3.14,4.03l1.59,0.29L422.13,186.76z"/>
			
				<linearGradient id="SVGID_00000067919949837130549730000006449222907858913189_" gradientUnits="userSpaceOnUse" x1="411.4136" y1="183.4632" x2="411.4136" y2="166.6482">
				<stop  offset="0" style="stop-color:#FFB0B0"/>
				<stop  offset="0.984" style="stop-color:#FFC2A9"/>
			</linearGradient>
			<path style="fill:url(#SVGID_00000067919949837130549730000006449222907858913189_);" d="M409.96,166.66c0,0,3.03-0.44,4.99,3.47
				l-0.44,1.26c0,0,2.95,0.58,5.81,5.37c0,0-2.53,4.61-8.78,6.69c0,0-2.91-0.82-3.41-3.28l0.57-1.58l-2.27,1.71
				c0,0-2.72,0.82-3.92-3.22L409.96,166.66z"/>
			
				<linearGradient id="SVGID_00000041259623806255758540000006055053942076119950_" gradientUnits="userSpaceOnUse" x1="421.1665" y1="186.0526" x2="421.1665" y2="176.8316">
				<stop  offset="0" style="stop-color:#FFB0B0"/>
				<stop  offset="0.984" style="stop-color:#FFC2A9"/>
			</linearGradient>
			<path style="fill:url(#SVGID_00000041259623806255758540000006055053942076119950_);" d="M425.37,181.63c0,0,0.63-2.91-2.46-4.8
				l-6,6.63c0,0,0.18,2.13,2.78,2.59C419.69,186.05,423.79,184.66,425.37,181.63z"/>
			
				<linearGradient id="SVGID_00000034083801488069548760000008442384303599738272_" gradientUnits="userSpaceOnUse" x1="381.7278" y1="204.4312" x2="398.8778" y2="204.4312">
				<stop  offset="0.016" style="stop-color:#D1A1D6"/>
				<stop  offset="0.9944" style="stop-color:#BD89C4"/>
			</linearGradient>
			<path style="opacity:0.91;fill:url(#SVGID_00000034083801488069548760000008442384303599738272_);" d="M381.73,195.53
				c0,0,6.95,7.76,17.15,11.14l-4.4,6.66l-9.17-11.65l0.59-1.68C385.9,200,382.23,197.24,381.73,195.53z"/>
			<path class="st33" d="M414.51,171.4c0,0-2.91,4.8-5.81,7.2l-0.57,1.58c0,0,5.64-3.81,7.71-8.2
				C415.84,171.98,415.17,171.49,414.51,171.4z"/>
		</g>
		
			<linearGradient id="SVGID_00000170979964630373423370000016297750478631679116_" gradientUnits="userSpaceOnUse" x1="357.8606" y1="263.6212" x2="357.8606" y2="179.11">
			<stop  offset="0" style="stop-color:#CCCCFF"/>
			<stop  offset="1" style="stop-color:#755CBB"/>
		</linearGradient>
		<path style="opacity:0.5;fill:url(#SVGID_00000170979964630373423370000016297750478631679116_);" d="M393.54,222.68
			c-0.88,1.39-5.3,4.3-6.44,5.44c-1.14,1.13,0,4.87,0,4.87c-18.57,19.71-37.93,29.58-39.88,30.54c-0.11,0.05-0.16,0.08-0.16,0.08
			c-1.52,0.19-8.91-1.89-16.3-16.67c-6.7-13.39-8.62-22.33-8.93-23.89l-0.04-0.24l1.63-2.21l2.42-27.28l1.7,5.49
			c6.44-7.77,12.51-19.7,12.51-19.7l0.27,0.86v0.01c1.09,4.28,3.33,20.31,5.41,26.03c1.3,3.57,3.35,5.54,4.86,6.56l0.01,0.02
			l-0.01,0.01c-5.93,5.41-8.87,13.19-10.32,19.38c-1.33,5.68-1.42,10.03-1.42,10.03s1.64-7.7,6.82-16.96
			c1.88-3.37,4.62-6.38,7.33-8.85c2.04-1.86,4.07-3.42,5.72-4.58c1.42,0.88,2.62,2.27,3.78,1.69c-7.8,11.71-7.61,34.89-0.28,30.47
			c7.32-4.42,9-13.8,9-13.8c-1.73-11.43-1.21-24.32,0.18-26.77c1.69,0.06,6.52,3.45,6.8,3.37c-0.44,13.45,5.88,22.43,5.88,22.43
			l4.17-6.45c-6.07-10.23-5.62-20.19-5.62-20.19c0.25-0.11,1.72,0.97,1.72,0.97l-1.03,1.28c1.58,9.1,6.76,15.22,6.76,15.22
			l3.47-5.08C393.54,214.76,394.43,221.29,393.54,222.68z"/>
		
			<linearGradient id="SVGID_00000145032171041377900160000018077136585923635129_" gradientUnits="userSpaceOnUse" x1="171.7878" y1="246.5946" x2="313.1378" y2="246.5946">
			<stop  offset="0" style="stop-color:#CCCCFF"/>
			<stop  offset="1" style="stop-color:#755CBB"/>
		</linearGradient>
		<path style="opacity:0.5;fill:url(#SVGID_00000145032171041377900160000018077136585923635129_);" d="M313.14,306.81v3.98
			l-0.07,0.07l-0.22,0.2l-0.18,0.15c-1.8,1.42-9.43,6.07-33.27,7.35c-28.25,1.51-47.07-7.58-47.07-7.58l1.42-3.89
			c0,0-1.32-1.13-1.42-1.7c-0.09-0.57,1.04-1.9,1.04-1.9s-2.84-1.51-2.84-3.41c0-1.71,4.64-6.66,5.39-11.31
			c0.09-0.5,0.13-0.99,0.11-1.48c-0.19-5-4.51-9.43-5.11-12.27c-0.01-0.03-0.01-0.04-0.01-0.04c-0.57-2.84,7.39-9.85,7.39-9.85
			c-6.82-21.6-8.15-50.59-8.15-50.59l-1.32-1.52c0,0-8.15,18.57-15.54,27.66c-7.39,9.1-18.19,16.87-20.08,16.49
			c-4.36,0-9.23-7.58-13.65-16.93c-4.42-9.35-4.69-36.21-4.92-37.87c-0.24-1.66-2.7-4.98-2.85-6.4c4.74,8.15,12.29,5.75,12.29,5.75
			c-5.47,0.12-8.31-10.11-8.31-10.11l-0.03-0.07l-0.03-0.07l-2.67-7.05c0.3,0.34,6.55,7.33,12.59,3.02
			c6.19-4.42,9.38-12.98,9.38-12.98v10.99c0,0,0.37,1.71,0.94,1.71c-0.37,5.06-1.44,11.22-2.74,17.29
			c-2.81,13.13-6.66,25.81-6.66,25.81s10.44-5.68,14.11-20.08c1.75-6.89,2.04-12.88,1.87-17.24c-0.15-3.73-0.64-6.28-0.84-7.21
			c-0.01-0.07-0.03-0.14-0.05-0.21c0-0.03-0.01-0.07-0.02-0.1c0-0.02-0.01-0.04-0.01-0.05l1.01,2.14l1.92,4.76
			c2.23,18.48-2.37,46.33-2.37,46.33c6.7-8.34,8.09-26.78,7.8-31.26c-0.13-2.14-0.3-4.78-0.41-6.94c-0.15-2.36-0.25-4.15-0.25-4.15
			l13.71,8.18l-2.53-8.02l9.98,8.02c0,0,8.97,10.8,18.19,12.06c9.22,1.27,43.07,0.51,43.07,0.51s-29.43,1.89-38.02,4.42
			c-8.59,2.53-10.23,5.43-10.23,5.43c6.21,31.59,40.58,42.24,41.65,42.56c-31.18-4.68-45.69-31.19-45.69-31.19
			s-0.51,14.91,1.89,20.59c2.4,5.68,16.55,19.58,34.74,22.48c1.53,0.24,3.04,0.39,4.53,0.46c15.34,0.72,28.04-7.12,29.34-7.96
			c0.07-0.05,0.11-0.07,0.11-0.07s-0.01,0.02-0.03,0.05c-0.49,0.75-6.78,9.59-32.18,10.56c-1.54,0.06-3.04,0.05-4.5-0.01
			c-0.01,0-0.02,0-0.02,0c-23.54-0.99-35.53-16.67-35.53-16.67s-8.71,4.68-3.15,11.62c0.06,0.07,0.12,0.15,0.18,0.22
			c1.64,1.89,5.25,4.2,9.52,6.58c0.12,0.07,0.24,0.14,0.35,0.2c5.16,2.85,11.21,5.79,15.89,8.22c0.03,0.01,0.05,0.02,0.07,0.03
			c2.86,1.49,5.21,2.77,6.52,3.73c0.01,0,0.01,0.01,0.01,0.01c1.32,0.96,1.59,1.58,0.3,1.73c-6.57,0.76-31.45-4.67-32.46-3.16
			c-1.01,1.52,1.23,5.43,1.23,5.43c22.84,11.32,71.71,5.74,73.25,5.57c-40.9,10.47-74.36-2.79-74.36-2.79l1.11,3.92
			c0,0,18.22,6.31,39.69,6.82c21.48,0.5,34.87-4.99,34.87-4.99L313.14,306.81z"/>
		
			<linearGradient id="SVGID_00000103946933181938140390000000800409176494605746_" gradientUnits="userSpaceOnUse" x1="296.4031" y1="222.9415" x2="323.4211" y2="222.9415">
			<stop  offset="0" style="stop-color:#CCEDFF"/>
			<stop  offset="1" style="stop-color:#755CBB"/>
		</linearGradient>
		<path style="opacity:0.5;fill:url(#SVGID_00000103946933181938140390000000800409176494605746_);" d="M296.4,216.87
			c0,0,16.27,0.88,27.02,3.73l-5.54,8.41C317.88,229.01,309.54,221.67,296.4,216.87z"/>
		
			<linearGradient id="SVGID_00000177453284213851793670000002559179301067239316_" gradientUnits="userSpaceOnUse" x1="271.8979" y1="270.358" x2="311.6039" y2="270.358">
			<stop  offset="0" style="stop-color:#CCEDFF"/>
			<stop  offset="1" style="stop-color:#755CBB"/>
		</linearGradient>
		<path style="opacity:0.5;fill:url(#SVGID_00000177453284213851793670000002559179301067239316_);" d="M311.6,261.71
			c0,0-10.15,8.47-20.13,12.38c-9.98,3.92-19.58,4.29-19.58,4.29s5.74,1.71,19.85-0.57c14.12-2.27,18.95-9.92,18.95-9.92
			L311.6,261.71z"/>
		
			<linearGradient id="SVGID_00000183233907114711733760000004157342105306678711_" gradientUnits="userSpaceOnUse" x1="273.7366" y1="288.3118" x2="316.1578" y2="288.3118">
			<stop  offset="0" style="stop-color:#CCEDFF"/>
			<stop  offset="1" style="stop-color:#755CBB"/>
		</linearGradient>
		<path style="opacity:0.5;fill:url(#SVGID_00000183233907114711733760000004157342105306678711_);" d="M316.16,294.32
			L316.16,294.32c-18.78,4.86-42.62-2.1-42.42-2.95c0.2-0.85,6.53,0.38,21.21-2.56c14.23-2.85,19.39-7.91,19.7-8.22
			c-0.12,0.86-2.08,2.75-2.64,4.81C311.63,286.77,314.29,291.09,316.16,294.32z"/>
		
			<linearGradient id="SVGID_00000064343545023804837070000005575299969897056390_" gradientUnits="userSpaceOnUse" x1="237.2278" y1="243.86" x2="237.2278" y2="196.25">
			<stop  offset="0" style="stop-color:#CCEDFF"/>
			<stop  offset="1" style="stop-color:#755CBB"/>
		</linearGradient>
		<path style="opacity:0.5;fill:url(#SVGID_00000064343545023804837070000005575299969897056390_);" d="M265.15,219.42
			c-16.04,1.63-20.36,6.1-20.36,6.1c-4.51,0.57-14.64-10.98-14.64-10.98l-1.32-1.52c0,0-8.15,18.57-15.54,27.66
			c-0.88,1.08-1.81,2.15-2.77,3.18l1.05-2.36c0,0,1.72-0.82,2.22-9.85c0.51-9.02-3.79-22.48-3.82-24.31s-0.66-11.09-0.66-11.09
			l13.71,8.18l-2.53-8.02l9.98,8.02c0,0,3.91,5.88,13.78,10.78C253.56,219.84,264,219.47,265.15,219.42z"/>
		
			<linearGradient id="SVGID_00000156580784278153863280000000651720040838251694_" gradientUnits="userSpaceOnUse" x1="241.0607" y1="247.8622" x2="241.0607" y2="211.7722">
			<stop  offset="0" style="stop-color:#CCEDFF"/>
			<stop  offset="1" style="stop-color:#755CBB"/>
		</linearGradient>
		<path style="opacity:0.5;fill:url(#SVGID_00000156580784278153863280000000651720040838251694_);" d="M228.83,213.02l9.56-1.25
			c0,0,3.82,2.53,11.49,5.65l-6.39,9.43c0,0,2.54,13.44,9.82,21.01c0,0-19.32-10.73-22.04-19.75L228.83,213.02z"/>
		
			<linearGradient id="SVGID_00000043454531707409867810000014578263075798905485_" gradientUnits="userSpaceOnUse" x1="184.0228" y1="201.7273" x2="184.0228" y2="174.46">
			<stop  offset="0" style="stop-color:#CCEDFF"/>
			<stop  offset="1" style="stop-color:#755CBB"/>
		</linearGradient>
		<path style="opacity:0.5;fill:url(#SVGID_00000043454531707409867810000014578263075798905485_);" d="M173.04,184.42l2.73,7.19
			c0,0,2.78,9.7,8.31,10.11c5.53,0.41,10.93-16.27,10.93-16.27v-10.99c0,0-5.88,12.6-12.23,14.02
			C176.43,189.91,173.04,184.42,173.04,184.42z"/>
		
			<linearGradient id="SVGID_00000005947967356377332390000013872291186939697834_" gradientUnits="userSpaceOnUse" x1="206.0878" y1="177.7153" x2="217.0767" y2="177.7153">
			<stop  offset="0" style="stop-color:#CCEDFF"/>
			<stop  offset="1" style="stop-color:#755CBB"/>
		</linearGradient>
		<path style="opacity:0.5;fill:url(#SVGID_00000005947967356377332390000013872291186939697834_);" d="M206.09,178.73
			c0,0,4.93,9.85,10.99,12.88c0,0-7.21-17.5-5.69-27.79C211.39,163.82,208.74,165.47,206.09,178.73z"/>
		
			<linearGradient id="SVGID_00000031898717901691941030000009351229735450953398_" gradientUnits="userSpaceOnUse" x1="325.5451" y1="243.86" x2="325.5451" y2="193.32">
			<stop  offset="0" style="stop-color:#CCCCFF"/>
			<stop  offset="1" style="stop-color:#755CBB"/>
		</linearGradient>
		<path style="opacity:0.76;fill:url(#SVGID_00000031898717901691941030000009351229735450953398_);" d="M325.84,193.32l1.7,5.49
			l1.72,45.05c0,0-4.37-8.57-7.43-20.81l1.59-2.45C323.42,220.6,326.09,203.62,325.84,193.32z"/>
		
			<linearGradient id="SVGID_00000155868878609783464660000006110536485128151702_" gradientUnits="userSpaceOnUse" x1="382.3658" y1="232.99" x2="382.3658" y2="206.58">
			<stop  offset="0" style="stop-color:#CCCCFF"/>
			<stop  offset="1" style="stop-color:#755CBB"/>
		</linearGradient>
		<path style="opacity:0.5;fill:url(#SVGID_00000155868878609783464660000006110536485128151702_);" d="M378.19,206.58
			c0,0-0.96,22.13,8.44,24.04l0.47,2.37C387.1,232.99,374.93,232.54,378.19,206.58z"/>
		
			<linearGradient id="SVGID_00000082341853046070757170000008060229976064160409_" gradientUnits="userSpaceOnUse" x1="352.4136" y1="231.81" x2="352.4136" y2="211.62">
			<stop  offset="0" style="stop-color:#CCCCFF"/>
			<stop  offset="1" style="stop-color:#755CBB"/>
		</linearGradient>
		<path style="opacity:0.3;fill:url(#SVGID_00000082341853046070757170000008060229976064160409_);" d="M362.5,213.31
			c0,0-0.36,0.79-3.78-1.69c0,0-11.83,8.38-16.39,20.19c0,0,7.29-10.85,11.17-12.02c3.88-1.17,4.82,3.16,4.82,3.16
			S359.85,216.84,362.5,213.31z"/>
		
			<linearGradient id="SVGID_00000119100797557447481260000005120098255290005669_" gradientUnits="userSpaceOnUse" x1="178.3152" y1="203.4679" x2="178.3152" y2="195.97">
			<stop  offset="0" style="stop-color:#CCEDFF"/>
			<stop  offset="1" style="stop-color:#755CBB"/>
		</linearGradient>
		<path style="opacity:0.5;fill:url(#SVGID_00000119100797557447481260000005120098255290005669_);" d="M171.79,195.97
			c0,0,4.55,8.39,13.08,5.76c0,0-5.11,3.44-10.23,0.64C174.64,202.37,171.46,196.92,171.79,195.97z"/>
		
			<linearGradient id="SVGID_00000032642984558462058110000018153333798919499143_" gradientUnits="userSpaceOnUse" x1="198.344" y1="226.3269" x2="198.344" y2="185.35">
			<stop  offset="0" style="stop-color:#CCCCFF"/>
			<stop  offset="1" style="stop-color:#755CBB"/>
		</linearGradient>
		<path style="opacity:0.5;fill:url(#SVGID_00000032642984558462058110000018153333798919499143_);" d="M201.6,185.35
			c0,0,6.26,23.4-10.07,40.98c0,0,10.6-5.44,13.01-18.04C206.94,195.68,201.6,185.35,201.6,185.35z"/>
		
			<linearGradient id="SVGID_00000147220067129962623990000014403798991420634778_" gradientUnits="userSpaceOnUse" x1="303.7673" y1="197.4842" x2="303.7673" y2="166.6482">
			<stop  offset="0" style="stop-color:#CCEDFF"/>
			<stop  offset="1" style="stop-color:#755CBB"/>
		</linearGradient>
		<path style="opacity:0.5;fill:url(#SVGID_00000147220067129962623990000014403798991420634778_);" d="M313.74,166.65
			c0,0-0.7,10.56-5.77,18.14c-5.06,7.58-15.1,12.69-15.1,12.69s12.6-4.64,18.38-11.18C317.02,179.77,313.74,166.65,313.74,166.65z"
			/>
		
			<linearGradient id="SVGID_00000011751420418149659570000007992085597082436499_" gradientUnits="userSpaceOnUse" x1="263.3695" y1="193.3158" x2="263.3695" y2="150.7562">
			<stop  offset="0" style="stop-color:#CCEDFF"/>
			<stop  offset="1" style="stop-color:#755CBB"/>
		</linearGradient>
		<path style="opacity:0.5;fill:url(#SVGID_00000011751420418149659570000007992085597082436499_);" d="M249.29,150.76
			c0,0,0,8.83,2.84,17.83c2.84,9,27.51,24.73,27.51,24.73s-25.43-10.56-30.35-20.06C244.36,163.76,249.29,150.76,249.29,150.76z"/>
		
			<linearGradient id="SVGID_00000103964019360954885890000012681507125046736288_" gradientUnits="userSpaceOnUse" x1="248.9988" y1="201.0999" x2="320.0833" y2="201.0999">
			<stop  offset="0" style="stop-color:#8642A0"/>
			<stop  offset="1" style="stop-color:#6456C0"/>
		</linearGradient>
		<path style="fill:url(#SVGID_00000103964019360954885890000012681507125046736288_);" d="M249,192.82v14.38
			c0,0,33.11-0.27,70.24,2.19l0.85-12.95C320.08,196.45,287.81,192.62,249,192.82z"/>
		
			<linearGradient id="SVGID_00000023985909118603824630000001724891190892101045_" gradientUnits="userSpaceOnUse" x1="255.1279" y1="160.08" x2="301.3878" y2="160.08">
			<stop  offset="0" style="stop-color:#CCCCFF"/>
			<stop  offset="1" style="stop-color:#755CBB"/>
		</linearGradient>
		<path style="opacity:0.5;fill:url(#SVGID_00000023985909118603824630000001724891190892101045_);" d="M301.39,152.67
			c-0.78,9.3-3.61,15.78-6.63,20.15c-4.16,6-8.66,8.05-8.66,8.05c-4.5-1.96-8.4-4.4-11.76-7.09c-14.26-11.4-18.86-27.2-19.21-28.5
			c6.02,14.54,14.86,23.35,21.56,28.31c5.4,4.01,9.41,5.52,9.41,5.52v-4.65c-1.07-0.4-2.11-0.86-3.1-1.36
			c-11.8-5.95-18-18.35-20.9-26.37c-0.01-0.02-0.01-0.03-0.02-0.05c-1.57-4.34-2.18-7.39-2.18-7.39h2.14l-0.7,1.5l-0.03,0.05
			c0.34,1.52,0.73,2.98,1.17,4.37c0.01,0.04,0.02,0.08,0.04,0.11c6.6,20.82,23.58,27.53,23.58,27.53
			c11.8-8.71,11.57-22.54,11.57-22.54v-1.9l2.21,0.66L301.39,152.67z"/>
		
			<linearGradient id="SVGID_00000029764311739639662280000000261476389090820019_" gradientUnits="userSpaceOnUse" x1="374.0492" y1="229.9789" x2="374.0492" y2="203.2074">
			<stop  offset="0" style="stop-color:#CCCCFF"/>
			<stop  offset="1" style="stop-color:#755CBB"/>
		</linearGradient>
		<path style="opacity:0.3;fill:url(#SVGID_00000029764311739639662280000000261476389090820019_);" d="M371.39,203.21
			c0,0-3.21,10.48-0.18,26.77c0,0,1.52-20.65,2.65-22.45c1.14-1.8,4.32-0.95,4.32-0.95S373.18,203.81,371.39,203.21z"/>
		
			<linearGradient id="SVGID_00000026136068611680684960000006798414046886973317_" gradientUnits="userSpaceOnUse" x1="336.2079" y1="260.18" x2="336.2079" y2="179.11">
			<stop  offset="0" style="stop-color:#CCCCFF"/>
			<stop  offset="1" style="stop-color:#755CBB"/>
		</linearGradient>
		<path style="opacity:0.5;fill:url(#SVGID_00000026136068611680684960000006798414046886973317_);" d="M340.27,260.18
			c-2.8-2.45-6.16-6.54-9.51-13.24c-6.7-13.39-8.62-22.33-8.93-23.89l1.59-2.45l2.13-20.6l1.99-1.19c0,0,7.11-7.85,12.51-19.7
			c0.08,0.18,0.17,0.46,0.27,0.86v0.01c1.09,4.28,3.33,20.31,5.41,26.03c1.3,3.57,3.35,5.54,4.86,6.56c0,0-12.31,18.26-12.91,31.29
			C337.15,255.72,339.79,259.58,340.27,260.18z"/>
		
			<linearGradient id="SVGID_00000010297518595804361330000015561098647160100018_" gradientUnits="userSpaceOnUse" x1="249.0479" y1="298.26" x2="249.0479" y2="275.02">
			<stop  offset="0" style="stop-color:#CCCCFF"/>
			<stop  offset="1" style="stop-color:#755CBB"/>
		</linearGradient>
		<path style="opacity:0.5;fill:url(#SVGID_00000010297518595804361330000015561098647160100018_);" d="M267.18,298.26
			c0,0-22.19-3.64-31.25-9.48c0,0-0.01,0-0.01-0.01c0.09-0.5,0.13-0.99,0.11-1.48c-0.19-5-4.51-9.43-5.11-12.27
			c0.1,0.27,0.75,1.77,3.9,4.47c1.99,1.71,5,3.91,9.52,6.58c0.12,0.07,0.24,0.14,0.35,0.2c6.4,3.78,11.91,6.34,15.89,8.22
			c0.03,0.01,0.05,0.02,0.07,0.03c3.58,1.68,5.9,2.79,6.52,3.73C267.18,298.25,267.18,298.26,267.18,298.26z"/>
		
			<linearGradient id="SVGID_00000028314235836768681370000015136186307737996418_" gradientUnits="userSpaceOnUse" x1="294.1928" y1="291.8761" x2="294.1928" y2="280.59">
			<stop  offset="0" style="stop-color:#CCCCFF"/>
			<stop  offset="1" style="stop-color:#755CBB"/>
		</linearGradient>
		<path style="opacity:0.5;fill:url(#SVGID_00000028314235836768681370000015136186307737996418_);" d="M314.65,280.59
			c-0.12,0.86-2.08,2.75-2.64,4.81c0,0-8.14,8.62-38.27,5.97c0.2-0.85,6.53,0.38,21.21-2.56
			C309.18,285.96,314.34,280.9,314.65,280.59z"/>
		<path class="st62" d="M319.66,163.96l-19.26,6.24l-5.64,2.62l-0.03,0.01l-3.67,0.01l-4.96,0.01l-3.1,0.25l-1.64,0.12l-4.67,0.37
			l-2.35,0.19l-23.1-8.36l-4.13-1.49l-19-6.88c0.56-0.22,1.13-0.44,1.73-0.68c12.75-5.05,25.26-11.18,25.26-11.18l4.8-5.9h2.14
			c1.91-4.18,3.18-8.09,4-11.17l1.27-5.71c0.09-0.55,0.13-0.85,0.13-0.85l6.8,3.59l22.93,18.34c-0.02,1.25,0.02,2.37,0.09,3.32
			l0.33,2.31c0.06-0.45,0.08-0.71,0.08-0.71l2.21,0.66l1.51,3.6c0,0,2.56,3.98,12.7,8.44C315.84,161.88,317.72,162.85,319.66,163.96
			z"/>
		<g>
			
				<linearGradient id="SVGID_00000018925640511257380820000009634209101699726765_" gradientUnits="userSpaceOnUse" x1="293.6953" y1="146.8119" x2="293.6953" y2="69.6049">
				<stop  offset="0.016" style="stop-color:#FFC2A9"/>
				<stop  offset="1" style="stop-color:#FF9595"/>
			</linearGradient>
			<path style="fill:url(#SVGID_00000018925640511257380820000009634209101699726765_);" d="M304.99,146.39
				c0,0-8.98,2.02-18.89-2.78s-18.24-18.95-18.75-22.48c-0.5-3.54,3.79-12.76,3.79-19.96c0-7.2-3.53-19.58,2.4-26.28
				c5.94-6.69,33.22-7.7,42.07,0.89c0,0,2.74,6.88,2.74,10.77c0,0.94-0.17,2.32-0.42,3.91c-0.08,0.59-0.19,1.22-0.29,1.87
				c-0.79,4.71-1.88,10.46-1.37,12.98c0.18,0.88,0.46,1.69,0.79,2.46v0.01c1.09,2.52,2.71,4.53,3,6.71
				C320.44,117.34,316.62,137.55,304.99,146.39z"/>
			
				<linearGradient id="SVGID_00000176040735004339504430000004583076041522117004_" gradientUnits="userSpaceOnUse" x1="264.9134" y1="115.6572" x2="264.9134" y2="92.8947">
				<stop  offset="0.016" style="stop-color:#FFC2A9"/>
				<stop  offset="1" style="stop-color:#FF9595"/>
			</linearGradient>
			<path style="fill:url(#SVGID_00000176040735004339504430000004583076041522117004_);" d="M271.06,99.14c0,0-2.45-6.15-8.61-6.24
				c0,0-3.6,1.42-4.17,4.17c0,0,1.33,9.95,2.84,14.59c1.52,4.64,7.07,3.97,7.07,3.97S273.04,108.22,271.06,99.14z"/>
			
				<linearGradient id="SVGID_00000025433387661146649630000014584148311048393606_" gradientUnits="userSpaceOnUse" x1="304.4265" y1="124.2652" x2="305.3809" y2="119.296">
				<stop  offset="0" style="stop-color:#E1616A"/>
				<stop  offset="1" style="stop-color:#FF8883"/>
			</linearGradient>
			<path style="fill:url(#SVGID_00000025433387661146649630000014584148311048393606_);" d="M294.73,119.39c0,0,2.05-0.16,2.93,0.5
				c0.88,0.66,4.11,3.79,8.18,4.64c4.07,0.85,6.81-2.62,7.67-2.79c0.87-0.18,1.82,1.05,1.82,1.05s-0.37-1.42-2.5-2.06
				c0,0-0.86,3.27-6.76,2.15c-5.9-1.12-8.42-3.74-8.42-3.74l-0.3-0.54C297.37,118.6,295.7,118.95,294.73,119.39z"/>
			
				<linearGradient id="SVGID_00000160186451892516034110000004570851414068540037_" gradientUnits="userSpaceOnUse" x1="295.8113" y1="120.4631" x2="295.8113" y2="70.7263">
				<stop  offset="0" style="stop-color:#FFEADB"/>
				<stop  offset="0.9944" style="stop-color:#C27CB6"/>
			</linearGradient>
			<path style="opacity:0.6;fill:url(#SVGID_00000160186451892516034110000004570851414068540037_);" d="M286.02,88.8l0.08-0.63
				c0,0,5.89-10.34,17.54-10.62c11.65-0.28,14.28,7.02,14.28,7.02l2.16-3.28l-4.92-9.99l-34.24-0.57l-8.34,6.73l-1.05,16.47
				l3.71,21.74l9.02,4.81l2.55-2.26c-0.94-7.28-6.35-13.93-6.35-13.93l3.95-2.74c0,0,10.14,4.91,15.99,3.44
				c0,0,4.41-12.86,4.15-22.38C304.55,82.59,289.53,84.81,286.02,88.8z"/>
			<path class="st67" d="M285.5,89.56c0,0,0.57-3.72,6.85-5.21c7-1.66,12.69-3.06,12.69-3.06s-1.24,4.08-3.57,5.61
				c0,0-7.41-0.27-11.15,0.58C286.56,88.34,285.5,89.56,285.5,89.56z"/>
			<path class="st67" d="M317.93,84.57c0,0-3.55,2.74-5.97,9.28c0,0,2.32-3.03,4.45-2.98c1.46,0.03,1.23,1.48,1.23,1.48
				S319.09,88.43,317.93,84.57z"/>
			
				<linearGradient id="SVGID_00000183955564026966456240000006192342776428775342_" gradientUnits="userSpaceOnUse" x1="293.3873" y1="100.0947" x2="293.3873" y2="90.2421">
				<stop  offset="0" style="stop-color:#CF6074"/>
				<stop  offset="1" style="stop-color:#F37270"/>
			</linearGradient>
			<path style="fill:url(#SVGID_00000183955564026966456240000006192342776428775342_);" d="M287.85,100.09c0,0,0.38-7.86,8.05-9.85
				c0,0,2.75,3.55,3.03,7.58C298.93,97.82,294.86,97.06,287.85,100.09z"/>
			
				<linearGradient id="SVGID_00000148640718329424844840000006504886476343705485_" gradientUnits="userSpaceOnUse" x1="313.0394" y1="103.2211" x2="313.0394" y2="94.6474">
				<stop  offset="0" style="stop-color:#CF6074"/>
				<stop  offset="1" style="stop-color:#FF817F"/>
			</linearGradient>
			<path style="fill:url(#SVGID_00000148640718329424844840000006504886476343705485_);" d="M309.82,103.22c0,0,0.62-6.26,4.22-8.57
				c0,0,2.45,1.84,2.2,7.08C316.24,101.72,314.09,100.95,309.82,103.22z"/>
			<path class="st70" d="M287.85,100.09c0,0,2.49,3.06,9.47,3.66c0,0,1.33-2.02,1.2-5.99C298.52,97.77,292.11,97.16,287.85,100.09z"
				/>
			<path class="st70" d="M309.82,103.22v0.92c0,0,1.07,2.24,4.93,2.62c0,0,1.24-1.93,1.35-5.07
				C316.1,101.69,313.65,101.07,309.82,103.22z"/>
			<path class="st71" d="M295.31,97.61c0,0-1.77,2.15-1.61,5.55c0,0,2.32,0.55,3.62,0.6c0,0,1.53-2.13,1.2-5.99
				C298.52,97.77,296.49,97.34,295.31,97.61z"/>
			<path class="st71" d="M313.48,101.79c0,0-1,1.07-1.19,4.36c0,0,1.37,0.6,2.46,0.6c0,0,1.4-1.99,1.35-5.07
				C316.1,101.69,315.12,101.31,313.48,101.79z"/>
			<path class="st67" d="M294.73,103.39c0,0-0.63-4.25,1.8-5.87l1.99,0.25c0,0,0.66,3.36-1.2,5.99
				C297.32,103.76,295.34,103.53,294.73,103.39z"/>
			<path class="st67" d="M314.36,101.61c0,0-0.9,1.89-1.32,4.83c0,0,0.69,0.28,1.71,0.32c0,0,1.36-1.67,1.35-5.07
				C316.1,101.69,315.06,101.41,314.36,101.61z"/>
			<path class="st72" d="M287.85,100.09c0,0,4.64-2.7,12.55-1.16l-1.47-1.11C298.93,97.82,293.29,96.07,287.85,100.09z"/>
			<path class="st72" d="M309.82,103.22c0,0,3.72-1.98,8.06-0.93l-1.79-1.32C316.1,100.97,313.19,100.52,309.82,103.22z"/>
			<path class="st12" d="M292.87,100.09c0,0,1.26-0.28,2.4,0.87C295.27,100.97,293.71,101.42,292.87,100.09z"/>
			<path class="st12" d="M311.53,103.76c0,0,1.98-0.38,2.66,0.52C314.19,104.28,313.13,105,311.53,103.76z"/>
			<path class="st73" d="M288.31,100.55c0,0,3.61,3.57,9.39,4.42l0.15-2.1l-0.53,0.89C297.32,103.76,291.76,103.43,288.31,100.55z"
				/>
			<path class="st73" d="M309.82,104.14c0,0,0.64,2.31,5.34,3.35l-0.15-1.13l-0.26,0.4C314.75,106.76,311.41,106.33,309.82,104.14z"
				/>
			<path class="st74" d="M300.4,113.36c0,0,1.75-0.38,4.97,0c3.22,0.38,6.84,1.26,8.82,0c0,0-2.63,2.63-4.91,3.03
				c-2.28,0.4-5.75-1.6-5.75-1.6l-1.52,0.03C302.02,114.82,300.86,114.24,300.4,113.36z"/>
			<path class="st75" d="M302.25,114.81c0,0,0.79-0.51,1.45-0.38c0.66,0.13,1.34,1.09,1.34,1.09S303.64,114.78,302.25,114.81z"/>
			<path class="st76" d="M314.19,113.36c0.84-0.82-3.52-8.58-5.6-8.87c-2.08-0.29-4.04,8.7-4.04,8.7s2.9,0.41,5.71,0.78
				C313.07,114.35,314.19,113.36,314.19,113.36z"/>
			
				<linearGradient id="SVGID_00000096756954554263147130000014299875334604954006_" gradientUnits="userSpaceOnUse" x1="313.8463" y1="108.21" x2="313.8463" y2="88.9167">
				<stop  offset="0" style="stop-color:#FFEADB"/>
				<stop  offset="0.9944" style="stop-color:#C27CB6"/>
			</linearGradient>
			<path style="opacity:0.6;fill:url(#SVGID_00000096756954554263147130000014299875334604954006_);" d="M317.31,88.92
				c-1.18-0.15-5.35,4.92-5.35,4.92s-2.65,8.21-2.13,10.64c0.52,2.44,6.96,3.73,6.96,3.73l0.27-0.43v-0.01
				c-0.33-0.77-0.61-1.58-0.79-2.46c-0.51-2.52,0.58-8.27,1.37-12.98c0,0,0.26-0.97,0.29-1.87
				C317.96,89.7,317.85,88.98,317.31,88.92z"/>
			
				<linearGradient id="SVGID_00000101811391187825003550000007596927181140056961_" gradientUnits="userSpaceOnUse" x1="294.7315" y1="147.7828" x2="294.7315" y2="54.15">
				<stop  offset="0" style="stop-color:#2E33A0"/>
				<stop  offset="1" style="stop-color:#0665A5"/>
			</linearGradient>
			<path style="fill:url(#SVGID_00000101811391187825003550000007596927181140056961_);" d="M317.12,122.26
				c-1.33-2.78-0.51-4.23-12.06-5.74c-16.35-2.15-17.75,2.84-20.53,2.08c-0.1-0.03-0.22-0.07-0.33-0.12
				c-3.01-1.17-10.1-8.14-10.28-17.53c-0.19-9.76,6.35-16.68,6.35-16.68c-2.37-1.99-3.32-7.76-0.76-10.23
				c2.56-2.46,6.92-1.89,17.62-0.76c10.71,1.14,10.71,0.48,10.71,0.48c3.4,0.87,5.35,4.06,5.9,5.08c0.11,0.2,0.16,0.32,0.16,0.32
				l1.33-1.23c3.6,5.21,2.94,10.89,2.94,10.89s5.87-11.94,5.2-13.63c-1.22-3.12-4.61-7.67-4.82-7.96l-0.01-0.01
				c0,0-0.95-9.09-3.79-9.09c-2.84,0-14.97,2.74-14.97,2.74c1.33-3.12,1.14-6.72,1.14-6.72s-0.02,0.02-0.05,0.05
				c-3.96,3.55-7.83,3.94-13.31,6.48c-2.76,1.29-4.06,2.48-5.13,3.72l-0.37,0.44l-0.39,0.47c-0.38,0.48-0.77,0.97-1.24,1.47
				c-0.02,0.03-0.05,0.05-0.06,0.06c-0.02,0.02-0.03,0.03-0.03,0.03c-0.44,0.48-0.96,0.97-1.59,1.49
				c-3.6,2.93-11.52,4.89-12.47,7.99c-0.95,3.09,1.2,7.32,2.34,11.68c1.13,4.36,0.61,8.21,0.61,8.21s3.77,4.86,2.52,11.97
				c-1.11,6.37-3.54,7.41-3.54,7.41c-1.71,3.51-0.9,6.79-0.9,6.79c3.5,13.92,17.98,22.21,17.98,22.21
				c12.88,4.8,21.35,2.71,21.35,2.71s0,0,0.01-0.01c9.37-6.11,12.58-26.33,12.72-27.27C319.21,120.3,317.47,123,317.12,122.26z
				 M311.34,135.15c-2.27-0.38-2.75-6.13-3.5-6.89c-0.76-0.75-4.87-0.44-4.87-0.44s-3.79,4.3-5.3,4.42
				c-1.52,0.13-9.6-3.16-7.85-8.08c1.74-4.93,7.85-5.56,7.85-5.56s3.16,2.65,7.89,2.96c4.74,0.31,6.45-0.56,7.01-0.81
				c0.57-0.26,3.62,1.13,3.54,5.43C316.06,129.17,313.62,135.53,311.34,135.15z"/>
			<path class="st79" d="M310.75,106.21c0,0,4.08,5.07,3.69,6.98c-0.43,2.09-5.16,3.2-5.16,3.2s3.79-1.31,4.57-3.2
				C313.86,113.19,312.88,109.35,310.75,106.21z"/>
			
				<linearGradient id="SVGID_00000056429144029670555400000006912193146256020649_" gradientUnits="userSpaceOnUse" x1="319.3245" y1="88.82" x2="319.3245" y2="67.22">
				<stop  offset="0" style="stop-color:#FFEADB"/>
				<stop  offset="0.9944" style="stop-color:#8860C7"/>
			</linearGradient>
			<path style="opacity:0.6;fill:url(#SVGID_00000056429144029670555400000006912193146256020649_);" d="M318.17,88.82
				c0,0,0.66-5.68-2.94-10.89c2.89-5.16,3.31-10.71,3.31-10.71l0.01,0.01c0.98,2.41,1.54,7.1,1.54,7.1l3.28,0.86
				C324.04,76.88,318.17,88.82,318.17,88.82z"/>
			
				<linearGradient id="SVGID_00000029023879291227984830000003637440195464877217_" gradientUnits="userSpaceOnUse" x1="289.8899" y1="147.7828" x2="289.8899" y2="54.15">
				<stop  offset="0" style="stop-color:#CCC2DB"/>
				<stop  offset="0.9944" style="stop-color:#8860C7"/>
			</linearGradient>
			<path style="opacity:0.6;fill:url(#SVGID_00000029023879291227984830000003637440195464877217_);" d="M313.74,78.84
				c-0.55-1.02-2.5-4.21-5.9-5.08c0,0,0,0.66-10.71-0.48c-10.7-1.13-15.06-1.7-17.62,0.76c-2.56,2.47-1.61,8.24,0.76,10.23
				c0,0-6.54,6.92-6.35,16.68c0.18,9.39,7.27,16.36,10.28,17.53l-0.14,1.04c0,0,0.53,21.5,5.76,23.21
				c5.22,1.7,16.06,0.82,17.07,1.83c0.96,0.96-0.14,2.61-0.24,2.76c-0.01,0.01-0.01,0.01-0.01,0.01s-8.47,2.09-21.35-2.71
				c0,0-14.48-8.29-17.98-22.21c0,0-0.81-3.28,0.9-6.79c0,0,2.43-1.04,3.54-7.41c1.25-7.11-2.52-11.97-2.52-11.97
				s0.52-3.85-0.61-8.21c-1.14-4.36-3.29-8.59-2.34-11.68c6.06,0.95,10.04-2.21,10.04-2.21s1.06-1.47,5.75-2.23
				c4.69-0.76,23.54,1.14,23.54,1.14s-1.89-1.57-5.87-2.61c-3.76-0.99-16.6,0.16-17.98,0.27c1.47-0.26,16.03-2.76,17.69-2.26
				c1.76,0.52,8.06,3.41,8.06,3.41c-0.57-2.89-6.21-9.85-6.21-9.85s-7.96,0.14-13.17,1.23c-4.65,0.97-7.2,3.1-7.7,3.54l1.24-1.47
				l0.39-0.47l0.37-0.44l1.82-0.31l9.14-3.69c3.07-1.64,7-5.7,7.48-6.2c0.03-0.03,0.05-0.05,0.05-0.05s0.19,3.6-1.14,6.72
				c7.72-0.95,10.33-0.47,10.33-0.47C313.62,65.37,313.74,78.84,313.74,78.84z"/>
			
				<linearGradient id="SVGID_00000097484758389707618890000011985540849483441299_" gradientUnits="userSpaceOnUse" x1="296.1682" y1="147.7607" x2="296.1682" y2="143.7378">
				<stop  offset="0" style="stop-color:#776D7E"/>
				<stop  offset="1" style="stop-color:#9D68C2"/>
			</linearGradient>
			<path style="opacity:0.5;fill:url(#SVGID_00000097484758389707618890000011985540849483441299_);" d="M285.29,144.62
				c0,0,4.73-1.12,11.87-0.83c7.14,0.29,11.25,0.32,9.48,3.54C306.64,147.33,297.67,149.36,285.29,144.62z"/>
			
				<linearGradient id="SVGID_00000116918612649912880660000006521282278968720272_" gradientUnits="userSpaceOnUse" x1="307.9707" y1="60.87" x2="307.9707" y2="57.8813">
				<stop  offset="0" style="stop-color:#1F77D1"/>
				<stop  offset="1" style="stop-color:#0686C9"/>
			</linearGradient>
			<path style="fill:url(#SVGID_00000116918612649912880660000006521282278968720272_);" d="M310.11,60.4c0,0,4.34-1.69,6.06-1.42
				c0,0-0.68-0.91-1.39-1.1c-0.71-0.19-15,2.98-15,2.98S308.69,59.83,310.11,60.4z"/>
			
				<linearGradient id="SVGID_00000165918285329743883600000002424351058824435616_" gradientUnits="userSpaceOnUse" x1="288.9314" y1="70.71" x2="288.9314" y2="61.8734">
				<stop  offset="0" style="stop-color:#1F77D1"/>
				<stop  offset="1" style="stop-color:#0686C9"/>
			</linearGradient>
			<path style="fill:url(#SVGID_00000165918285329743883600000002424351058824435616_);" d="M301.3,62.01c0,0-0.34,4.73-1.85,6.44
				l-17.69,2.26l-5.19-0.92c0,0,2.01-0.86,4.22-3.43C282.99,63.78,294.52,61.25,301.3,62.01z"/>
			
				<linearGradient id="SVGID_00000137849855987018477690000004390524875423068808_" gradientUnits="userSpaceOnUse" x1="320.9529" y1="75.19" x2="320.9529" y2="67.22">
				<stop  offset="0" style="stop-color:#1F77D1"/>
				<stop  offset="1" style="stop-color:#0686C9"/>
			</linearGradient>
			<path style="fill:url(#SVGID_00000137849855987018477690000004390524875423068808_);" d="M318.54,67.22c0,0,1.44,4.65,1.55,7.11
				l3.28,0.86C323.37,75.19,322.37,71.67,318.54,67.22z"/>
			
				<linearGradient id="SVGID_00000040561289135751970500000005992808850921814914_" gradientUnits="userSpaceOnUse" x1="268.2283" y1="110.2623" x2="258.0325" y2="97.7712">
				<stop  offset="0" style="stop-color:#FFEADB"/>
				<stop  offset="0.9944" style="stop-color:#B060F4"/>
			</linearGradient>
			<path style="opacity:0.8;fill:url(#SVGID_00000040561289135751970500000005992808850921814914_);" d="M270.33,107.48
				c0,0-1.24-5.97-4.29-8.92c-3.05-2.95-6.52-2.01-6.52-2.01s0.95,11.07,1.94,13.77c0.99,2.7,2.51,3.41,2.51,3.41
				s-2.13-1.87-2.42-5.53c-0.28-3.66-0.38-8.82,0.43-9.44c0.81-0.62,4.06,1.79,4.06,1.79s-1.03,1.26-1.64,4.52
				c-0.62,3.26,1.66,5.63,2.51,5.58c0.85-0.05-0.05-3.77,0.09-4.85S269.04,104.97,270.33,107.48z"/>
			
				<linearGradient id="SVGID_00000090978444672717483130000002490550808802961284_" gradientUnits="userSpaceOnUse" x1="269.2957" y1="108.6533" x2="264.2791" y2="102.5073">
				<stop  offset="0" style="stop-color:#FFEADB"/>
				<stop  offset="0.9944" style="stop-color:#B060F4"/>
			</linearGradient>
			<path style="opacity:0.8;fill:url(#SVGID_00000090978444672717483130000002490550808802961284_);" d="M267.29,100.07
				c0,0-3.33,2.19-2.97,6.67c0.36,4.49,2.92,4.29,2.93,3.35c0.01-0.94-0.49-3.37-0.23-4.74c0.26-1.37,2.47-0.75,2.47-0.75
				S268.04,101.04,267.29,100.07z"/>
			<path class="st88" d="M319.37,120.05c0,0-4.14,18.87-12.73,27.28C306.64,147.33,316.44,143.48,319.37,120.05z"/>
			<path class="st88" d="M314.77,57.89c0,0,2.18,1.7,2.6,7.59c0.41,5.9-2.14,12.45-2.14,12.45s3.28-4.9,3.6-10.27
				C319.14,62.29,316.5,58.57,314.77,57.89z"/>
		</g>
		
			<linearGradient id="SVGID_00000151517562069054304460000004475593806391484291_" gradientUnits="userSpaceOnUse" x1="288.341" y1="71.5004" x2="305.6078" y2="71.5004">
			<stop  offset="0" style="stop-color:#1F77D1"/>
			<stop  offset="1" style="stop-color:#0686C9"/>
		</linearGradient>
		<path style="fill:url(#SVGID_00000151517562069054304460000004475593806391484291_);" d="M288.34,70.24c0,0,5.05,1.72,10.59,2.21
			s6.68,0.6,6.68,0.6s-2.23-2.16-6.97-2.81C293.9,69.59,288.34,70.24,288.34,70.24z"/>
		
			<linearGradient id="SVGID_00000006687795334353398600000006712973079973697189_" gradientUnits="userSpaceOnUse" x1="312.6953" y1="123.1387" x2="317.9323" y2="123.1387">
			<stop  offset="0" style="stop-color:#1F77D1"/>
			<stop  offset="1" style="stop-color:#0686C9"/>
		</linearGradient>
		<path style="fill:url(#SVGID_00000006687795334353398600000006712973079973697189_);" d="M312.74,120.46c0,0,2.42,0,3.37,3.03
			c0.76,2.42,0.97,4.5,0.97,4.5l0.86-3.32c0,0-1.12-4.21-2.28-5.16c-0.84-0.68-2.28-1.37-2.96-1.21L312.74,120.46z"/>
		
			<linearGradient id="SVGID_00000089554382816032620390000009500038894973715072_" gradientUnits="userSpaceOnUse" x1="306.2294" y1="119.2445" x2="311.8781" y2="119.2445">
			<stop  offset="0" style="stop-color:#1F77D1"/>
			<stop  offset="1" style="stop-color:#0686C9"/>
		</linearGradient>
		<path style="fill:url(#SVGID_00000089554382816032620390000009500038894973715072_);" d="M306.23,117.43l0.41,3.6
			c0,0,2.94,0.24,4.89-0.57l0.35-2.18C311.88,118.28,308.12,117.34,306.23,117.43z"/>
		<path class="st88" d="M319.66,163.96c0,0,17.23,12.58,19.46,16.91c2.24,4.33,3.14,17.9,6.16,23.78c0,0-2.07-9.61-3.52-17.14
			c-1.45-7.53-1.1-7.64-1.91-9.49C339.06,176.17,326.19,167.24,319.66,163.96z"/>
		<path class="st88" d="M316.57,234c0,0-8.3,35.54-7.93,37.94c0.38,2.4,5.75,7.3,6,8.64c0,0-4.11,5.5-3.92,6.72
			c0.19,1.22,7.2,8.92,7.01,11.31c-0.05,0.69-4.6,8.19-4.6,8.19s5.14-7.37,5.39-8.55c0.25-1.18-6.3-11.03-6.49-12.03
			c-0.5-2.59,3.27-4.5,3.39-6.2c0.13-1.71-5.09-5.87-5.14-8.65C310.26,268.6,316.57,234,316.57,234z"/>
		<path class="st88" d="M318.26,318.73c0,0,17.95,40.63,24.07,81.27C342.33,400,341.31,360.34,318.26,318.73z"/>
		<path class="st76" d="M204.45,155.8c0,0-4.64-0.99-6.57-5.04c-1.93-4.05-0.67-9.92-0.67-9.92s3.64,6.98,5.45,9.36
			C204.47,152.58,204.95,155.29,204.45,155.8z"/>
		<text transform="matrix(0.9992 0.0399 -0.0399 0.9992 261.1884 203.6188)" class="st92 st93 st94">Java Zone</text>
	</g>
	<g style="clip-path:url(#SVGID_00000004545968124113151770000008396291463156663176_);">
		<path class="st95" d="M347.76,134.62l3.22,91.8c0.13,3.64,3.12,6.53,6.76,6.53h158.13c3.67,0,6.67-2.93,6.76-6.6l2.21-92.87
			c0.09-3.82-2.99-6.95-6.81-6.93l-163.56,1.07C350.66,127.64,347.62,130.81,347.76,134.62z"/>
		<g>
			<path class="st96" d="M515.87,233.19H357.74c-3.8,0-6.88-2.97-7.01-6.77l-3.22-91.8c-0.07-1.91,0.62-3.72,1.95-5.1
				c1.32-1.38,3.1-2.15,5.02-2.16l163.57-1.07c1.9,0.01,3.71,0.73,5.05,2.1c1.34,1.37,2.06,3.17,2.01,5.08l-2.21,92.87
				C522.79,230.18,519.71,233.19,515.87,233.19z M518.08,126.79c-0.01,0-0.03,0-0.04,0l-163.57,1.07c-1.78,0.01-3.43,0.72-4.66,2
				c-1.23,1.28-1.87,2.96-1.81,4.74l3.22,91.8c0.12,3.53,2.98,6.29,6.51,6.29h158.13c3.51,0,6.43-2.85,6.51-6.36l2.21-92.87
				c0.04-1.78-0.62-3.45-1.87-4.72C521.49,127.48,519.84,126.79,518.08,126.79z"/>
		</g>
		
			<linearGradient id="SVGID_00000083784396053449215540000011376475346913927348_" gradientUnits="userSpaceOnUse" x1="347.8937" y1="132.9462" x2="524.9522" y2="132.9462">
			<stop  offset="0" style="stop-color:#9D68C2"/>
			<stop  offset="1" style="stop-color:#AEC2FF"/>
		</linearGradient>
		<path style="opacity:0.6;fill:url(#SVGID_00000083784396053449215540000011376475346913927348_);" d="M347.99,139.29h176.66
			l0.28-4.84c0.25-4.28-3.17-7.88-7.46-7.85l-163.5,1.29c-3.41,0.03-6.15,2.84-6.08,6.25L347.99,139.29z"/>
		
			<linearGradient id="SVGID_00000179625543012001143940000002396311607067942332_" gradientUnits="userSpaceOnUse" x1="383.9118" y1="199.8196" x2="383.9118" y2="146.4174">
			<stop  offset="0" style="stop-color:#CCEDFF"/>
			<stop  offset="1" style="stop-color:#9D68C2"/>
		</linearGradient>
		<polygon style="opacity:0.3;fill:url(#SVGID_00000179625543012001143940000002396311607067942332_);" points="356.87,146.7 
			356.87,199.82 410.95,199.82 410.95,146.42 		"/>
		
			<linearGradient id="SVGID_00000075867973142942537780000009462122114301811587_" gradientUnits="userSpaceOnUse" x1="474.9706" y1="173.7835" x2="474.9706" y2="150.2609">
			<stop  offset="0" style="stop-color:#CCEDFF"/>
			<stop  offset="1" style="stop-color:#9D68C2"/>
		</linearGradient>
		
			<rect x="463.21" y="150.26" style="opacity:0.3;fill:url(#SVGID_00000075867973142942537780000009462122114301811587_);" width="23.52" height="23.52"/>
		
			<linearGradient id="SVGID_00000109715005536465731940000007614486735943882628_" gradientUnits="userSpaceOnUse" x1="502.7241" y1="173.7835" x2="502.7241" y2="150.2609">
			<stop  offset="0" style="stop-color:#CCEDFF"/>
			<stop  offset="1" style="stop-color:#9D68C2"/>
		</linearGradient>
		
			<rect x="490.96" y="150.26" style="opacity:0.3;fill:url(#SVGID_00000109715005536465731940000007614486735943882628_);" width="23.52" height="23.52"/>
		
			<linearGradient id="SVGID_00000047051717784183928420000000457832484257501854_" gradientUnits="userSpaceOnUse" x1="446.7534" y1="173.7835" x2="446.7534" y2="150.2609">
			<stop  offset="0" style="stop-color:#CCEDFF"/>
			<stop  offset="1" style="stop-color:#9D68C2"/>
		</linearGradient>
		
			<rect x="434.99" y="150.26" style="opacity:0.3;fill:url(#SVGID_00000047051717784183928420000000457832484257501854_);" width="23.52" height="23.52"/>
		<rect x="454.33" y="187.5" class="st102" width="60.15" height="5.63"/>
		<rect x="439.29" y="196.07" class="st102" width="75.2" height="1.74"/>
		<rect x="440" y="176.78" class="st102" width="14.39" height="1.74"/>
		<rect x="467.78" y="176.78" class="st102" width="14.39" height="1.74"/>
		<rect x="495.53" y="176.78" class="st102" width="14.39" height="1.74"/>
		<rect x="434.99" y="198.91" class="st102" width="24.19" height="1.74"/>
		<rect x="439.29" y="201.71" class="st102" width="75.2" height="1.74"/>
		<rect x="434.99" y="204.51" class="st102" width="79.49" height="1.74"/>
		<rect x="434.99" y="207.31" class="st102" width="79.49" height="1.74"/>
		<rect x="439.29" y="218.63" class="st102" width="75.2" height="1.74"/>
		<rect x="434.99" y="221.43" class="st102" width="79.49" height="1.74"/>
		<rect x="434.99" y="224.23" class="st102" width="79.49" height="1.74"/>
		<rect x="434.99" y="210.11" class="st102" width="76.3" height="1.74"/>
		<rect x="439.29" y="212.91" class="st102" width="75.2" height="1.74"/>
		<rect x="434.99" y="215.71" class="st102" width="64.41" height="1.74"/>
		<g>
			<path class="st103" d="M372.02,189.17c-8.48,0-15.38-6.9-15.38-15.38c0-8.48,6.9-15.38,15.38-15.38c8.48,0,15.38,6.9,15.38,15.38
				C387.41,182.27,380.51,189.17,372.02,189.17z M372.02,159.4c-7.93,0-14.38,6.45-14.38,14.38c0,7.93,6.45,14.38,14.38,14.38
				c7.93,0,14.38-6.45,14.38-14.38C386.41,165.85,379.96,159.4,372.02,159.4z"/>
		</g>
		<circle class="st12" cx="372.02" cy="173.78" r="8.36"/>
		<g>
			<path class="st103" d="M410.95,161.8c-8.48,0-15.38-6.9-15.38-15.38c0-8.48,6.9-15.38,15.38-15.38c8.48,0,15.38,6.9,15.38,15.38
				C426.33,154.9,419.43,161.8,410.95,161.8z M410.95,132.03c-7.93,0-14.38,6.45-14.38,14.38c0,7.93,6.45,14.38,14.38,14.38
				c7.93,0,14.38-6.45,14.38-14.38C425.33,138.49,418.88,132.03,410.95,132.03z"/>
		</g>
		
			<ellipse transform="matrix(0.1554 -0.9878 0.9878 0.1554 202.4329 529.6125)" class="st12" cx="410.95" cy="146.42" rx="7.87" ry="7.87"/>
		<g>
			<polygon class="st12" points="354.18,132.08 355.31,130.38 361.38,135.7 360.45,137 			"/>
			<polygon class="st12" points="361.54,132.08 360.42,130.38 354.34,135.7 355.27,137 			"/>
		</g>
		<rect x="465.94" y="131.53" class="st12" width="54.44" height="2.73"/>
	</g>
	<g style="clip-path:url(#SVGID_00000004545968124113151770000008396291463156663176_);">
		
			<linearGradient id="SVGID_00000030484307488441808690000009093014316529262249_" gradientUnits="userSpaceOnUse" x1="193.7659" y1="115.9874" x2="193.7659" y2="91.3654">
			<stop  offset="0" style="stop-color:#D93DE3"/>
			<stop  offset="1" style="stop-color:#FF6DBA"/>
		</linearGradient>
		<polygon style="fill:url(#SVGID_00000030484307488441808690000009093014316529262249_);" points="179.45,92.12 179.45,115.75 
			207.7,115.99 208.08,91.37 		"/>
		
			<linearGradient id="SVGID_00000057121911969651858470000002791746886016931512_" gradientUnits="userSpaceOnUse" x1="208.8158" y1="115.9874" x2="208.8158" y2="91.3654">
			<stop  offset="0" style="stop-color:#A242EA"/>
			<stop  offset="1" style="stop-color:#FE117E"/>
		</linearGradient>
		<polygon style="fill:url(#SVGID_00000057121911969651858470000002791746886016931512_);" points="208.08,91.37 209.93,94.47 
			209.01,115.96 207.7,115.99 		"/>
		<polygon class="st12" points="184.49,100.1 187.1,96.31 201.21,108.15 199.05,111.04 		"/>
		<polygon class="st12" points="201.58,100.1 198.97,96.31 184.86,108.15 187.02,111.04 		"/>
	</g>
	<g style="clip-path:url(#SVGID_00000004545968124113151770000008396291463156663176_);">
		
			<linearGradient id="SVGID_00000007427516365925257890000000005014278044758445_" gradientUnits="userSpaceOnUse" x1="189.4935" y1="375.37" x2="202.8083" y2="269.3559">
			<stop  offset="0" style="stop-color:#067EFF"/>
			<stop  offset="1" style="stop-color:#3E37A0"/>
		</linearGradient>
		<path style="opacity:0.81;fill:url(#SVGID_00000007427516365925257890000000005014278044758445_);" d="M245.37,370.18h-96.69
			c-4.3,0-7.82-3.44-7.92-7.74l-1.81-79.31c-0.1-4.44,3.47-8.1,7.92-8.1h100.67c4.46,0,8.04,3.68,7.92,8.14l-2.18,79.31
			C253.17,366.77,249.66,370.18,245.37,370.18z"/>
		<g>
			<path class="st107" d="M245.37,370.43h-96.69c-4.4,0-8.07-3.58-8.17-7.98l-1.81-79.31c-0.05-2.22,0.78-4.31,2.33-5.9
				c1.55-1.58,3.62-2.46,5.84-2.46h100.67c2.22,0,4.3,0.88,5.85,2.47c1.55,1.59,2.37,3.7,2.31,5.92l-2.18,79.31
				C253.41,366.94,249.82,370.43,245.37,370.43z M146.87,275.29c-2.08,0-4.03,0.82-5.48,2.31c-1.46,1.49-2.23,3.46-2.18,5.54
				l1.81,79.31c0.09,4.13,3.53,7.49,7.67,7.49h96.69c4.18,0,7.55-3.28,7.67-7.46l2.18-79.31c0.06-2.09-0.71-4.06-2.17-5.56
				c-1.46-1.5-3.41-2.32-5.5-2.32H146.87z"/>
		</g>
		<g>
			<rect x="165.02" y="291.26" class="st12" width="50.85" height="2.18"/>
			<rect x="165.02" y="296.55" class="st12" width="25.42" height="2.18"/>
			<rect x="165.02" y="300.98" class="st12" width="25.42" height="2.18"/>
			<rect x="193.3" y="300.98" class="st12" width="20.23" height="2.18"/>
			<rect x="165.02" y="305.4" class="st12" width="40.99" height="2.18"/>
			<rect x="165.02" y="309.82" class="st12" width="14.59" height="2.18"/>
			<rect x="182.61" y="323.08" class="st12" width="25.23" height="2.18"/>
			<rect x="165.02" y="314.24" class="st12" width="45.73" height="2.18"/>
			<rect x="165.02" y="318.66" class="st12" width="35.18" height="2.18"/>
			<rect x="165.02" y="323.08" class="st12" width="16.55" height="2.18"/>
			<rect x="165.02" y="327.5" class="st12" width="25.42" height="2.18"/>
			<rect x="165.02" y="331.92" class="st12" width="7.29" height="2.18"/>
			<rect x="175.32" y="331.92" class="st12" width="26.46" height="2.18"/>
			<rect x="182.61" y="336.21" class="st12" width="25.23" height="2.18"/>
			<rect x="165.02" y="336.21" class="st12" width="16.55" height="2.18"/>
			<rect x="165.02" y="340.63" class="st12" width="25.42" height="2.18"/>
			<rect x="165.02" y="345.05" class="st12" width="7.29" height="2.18"/>
			<rect x="175.32" y="345.05" class="st12" width="26.46" height="2.18"/>
		</g>
	</g>
	
		<linearGradient id="SVGID_00000068642739127241599790000014301929111272689855_" gradientUnits="userSpaceOnUse" x1="500.3469" y1="113.3083" x2="500.3469" y2="104.3711">
		<stop  offset="0" style="stop-color:#459FFF"/>
		<stop  offset="1" style="stop-color:#A96DFF"/>
	</linearGradient>
	
		<path style="clip-path:url(#SVGID_00000004545968124113151770000008396291463156663176_);fill:url(#SVGID_00000068642739127241599790000014301929111272689855_);" d="
		M504.82,108.84c0,2.47-2,4.47-4.47,4.47c-2.47,0-4.47-2-4.47-4.47s2-4.47,4.47-4.47C502.81,104.37,504.82,106.37,504.82,108.84z"/>
	
		<linearGradient id="SVGID_00000157995607098923514140000010770191454617422993_" gradientUnits="userSpaceOnUse" x1="80.3535" y1="218.0383" x2="80.3535" y2="206.915">
		<stop  offset="0" style="stop-color:#459FFF"/>
		<stop  offset="1" style="stop-color:#A96DFF"/>
	</linearGradient>
	
		<path style="clip-path:url(#SVGID_00000004545968124113151770000008396291463156663176_);fill:url(#SVGID_00000157995607098923514140000010770191454617422993_);" d="
		M85.92,212.48c0,3.07-2.49,5.56-5.56,5.56s-5.56-2.49-5.56-5.56s2.49-5.56,5.56-5.56S85.92,209.41,85.92,212.48z"/>
	
		<linearGradient id="SVGID_00000047760260290967866590000008638335489951525771_" gradientUnits="userSpaceOnUse" x1="513.472" y1="113.3083" x2="513.472" y2="104.3711">
		<stop  offset="0" style="stop-color:#B31A8F"/>
		<stop  offset="1" style="stop-color:#FE117E"/>
	</linearGradient>
	
		<circle style="clip-path:url(#SVGID_00000004545968124113151770000008396291463156663176_);fill:url(#SVGID_00000047760260290967866590000008638335489951525771_);" cx="513.47" cy="108.84" r="4.47"/>
	
		<linearGradient id="SVGID_00000076578975800614728850000012767758266779071117_" gradientUnits="userSpaceOnUse" x1="225.3011" y1="142.7256" x2="225.3011" y2="136.406">
		<stop  offset="0" style="stop-color:#B31A8F"/>
		<stop  offset="1" style="stop-color:#FE117E"/>
	</linearGradient>
	
		<circle style="clip-path:url(#SVGID_00000004545968124113151770000008396291463156663176_);fill:url(#SVGID_00000076578975800614728850000012767758266779071117_);" cx="225.3" cy="139.57" r="3.16"/>
	
		<linearGradient id="SVGID_00000007396212452913410910000018053871904517595031_" gradientUnits="userSpaceOnUse" x1="436.9577" y1="282.1632" x2="436.9577" y2="275.8436">
		<stop  offset="0" style="stop-color:#8642A0"/>
		<stop  offset="1" style="stop-color:#6456C0"/>
	</linearGradient>
	
		<circle style="clip-path:url(#SVGID_00000004545968124113151770000008396291463156663176_);fill:url(#SVGID_00000007396212452913410910000018053871904517595031_);" cx="436.96" cy="279" r="3.16"/>
	
		<linearGradient id="SVGID_00000147188424077897609690000011201455949397446802_" gradientUnits="userSpaceOnUse" x1="108.4361" y1="313.3327" x2="108.4361" y2="307.6831">
		<stop  offset="0" style="stop-color:#8642A0"/>
		<stop  offset="1" style="stop-color:#6456C0"/>
	</linearGradient>
	
		<circle style="clip-path:url(#SVGID_00000004545968124113151770000008396291463156663176_);fill:url(#SVGID_00000147188424077897609690000011201455949397446802_);" cx="108.44" cy="310.51" r="2.82"/>
	<g style="clip-path:url(#SVGID_00000004545968124113151770000008396291463156663176_);">
		
			<linearGradient id="SVGID_00000116941124237703027590000013916199481701076149_" gradientUnits="userSpaceOnUse" x1="132.141" y1="282.7714" x2="132.141" y2="236.1088">
			<stop  offset="0" style="stop-color:#D906E3"/>
			<stop  offset="1" style="stop-color:#FF6DF9"/>
		</linearGradient>
		<path style="opacity:0.73;fill:url(#SVGID_00000116941124237703027590000013916199481701076149_);" d="M156.59,282.77h-48.8
			c-3.93,0-7.15-3.11-7.28-7.04l-1.08-32.1c-0.14-4.12,3.16-7.53,7.28-7.53h50.86c4.11,0,7.41,3.4,7.28,7.51l-0.98,32.1
			C163.75,279.64,160.53,282.77,156.59,282.77z"/>
		<g>
			<path class="st115" d="M156.59,283.02h-48.8c-4.08,0-7.39-3.2-7.53-7.28l-1.08-32.1c-0.07-2.06,0.68-4.01,2.11-5.49
				c1.43-1.48,3.36-2.3,5.42-2.3h50.86c2.06,0,3.98,0.81,5.41,2.29c1.43,1.48,2.19,3.42,2.12,5.48l-0.98,32.1
				C164,279.81,160.69,283.02,156.59,283.02z M106.71,236.36c-1.92,0-3.72,0.76-5.06,2.14s-2.04,3.2-1.97,5.13l1.08,32.1
				c0.13,3.81,3.22,6.8,7.03,6.8h48.8c3.82,0,6.91-3,7.03-6.82l0.98-32.1c0.06-1.92-0.64-3.73-1.98-5.11
				c-1.34-1.38-3.13-2.14-5.05-2.14H106.71z"/>
		</g>
		<g>
			<polygon class="st12" points="120.8,247.64 108.77,261.59 121.02,271.99 121.02,266.62 113.94,260.48 120.52,253.04 			"/>
		</g>
		<g>
			<polygon class="st12" points="141.95,248.27 153.98,262.21 141.73,272.61 141.73,267.25 148.82,261.11 140.93,252.76 			"/>
		</g>
		<g>
			<polygon class="st12" points="123.42,271.99 133.91,248.89 138.83,248.89 126.96,271.99 			"/>
		</g>
	</g>
	<g style="clip-path:url(#SVGID_00000004545968124113151770000008396291463156663176_);">
		
			<linearGradient id="SVGID_00000075133515651467979550000003345385536968763325_" gradientUnits="userSpaceOnUse" x1="454.3319" y1="348.8215" x2="454.3319" y2="290.4473">
			<stop  offset="0" style="stop-color:#D906E3"/>
			<stop  offset="1" style="stop-color:#FF6DF9"/>
		</linearGradient>
		<path style="opacity:0.73;fill:url(#SVGID_00000075133515651467979550000003345385536968763325_);" d="M484.92,348.82h-61.05
			c-4.91,0-8.94-3.89-9.11-8.8l-1.36-40.15c-0.17-5.15,3.95-9.42,9.11-9.42h63.63c5.14,0,9.26,4.25,9.11,9.39l-1.23,40.15
			C493.88,344.91,489.84,348.82,484.92,348.82z"/>
		<g>
			<path class="st115" d="M484.92,349.07h-61.05c-5.08,0-9.18-3.97-9.36-9.04l-1.36-40.15c-0.09-2.56,0.85-4.98,2.63-6.82
				c1.78-1.84,4.17-2.85,6.73-2.85h63.63c2.55,0,4.94,1.01,6.72,2.84c1.78,1.83,2.72,4.25,2.64,6.8L494.28,340
				C494.12,345.08,490.01,349.07,484.92,349.07z M422.52,290.7c-2.42,0-4.69,0.96-6.37,2.7c-1.68,1.74-2.57,4.04-2.49,6.46
				l1.36,40.15c0.16,4.8,4.05,8.56,8.86,8.56h61.05c4.82,0,8.71-3.77,8.86-8.59l1.23-40.15c0.07-2.42-0.81-4.71-2.5-6.44
				c-1.68-1.74-3.94-2.69-6.36-2.69H422.52z"/>
		</g>
		<rect x="425.64" y="296.91" class="st102" width="55.91" height="33.21"/>
		<polygon class="st12" points="448.65,305.15 448.65,321.88 462.94,312.75 		"/>
		<rect x="425.64" y="336.24" class="st102" width="55.91" height="3.04"/>
		<rect x="425.64" y="336.24" class="st12" width="14.47" height="3.04"/>
	</g>
	<g style="clip-path:url(#SVGID_00000004545968124113151770000008396291463156663176_);">
		<g>
			
				<linearGradient id="SVGID_00000050627096004053346530000005563144670163661190_" gradientUnits="userSpaceOnUse" x1="400.5525" y1="276.2185" x2="395.5786" y2="233.5275" gradientTransform="matrix(0.9656 0.26 -0.26 0.9656 63.6333 -54.681)">
				<stop  offset="0" style="stop-color:#1852A0"/>
				<stop  offset="1" style="stop-color:#067ED3"/>
			</linearGradient>
			<path style="fill-rule:evenodd;clip-rule:evenodd;fill:url(#SVGID_00000050627096004053346530000005563144670163661190_);" d="
				M384.68,286.42l-2.92,8.35C383.38,290.15,385.69,287.16,384.68,286.42z M381.77,294.76l-2.92,8.35
				C379.58,302.89,380.15,299.38,381.77,294.76z M384.68,286.42l-2.92,8.35C383.38,290.15,385.69,287.16,384.68,286.42z
				 M381.77,294.76l-2.92,8.35C379.58,302.89,380.15,299.38,381.77,294.76z M390.19,302l2.83,1.61l3.06-8.35l-3.28-0.55
				c0.06-0.31,0.12-0.62,0.16-0.93c0.24-1.43,0.32-2.83,0.28-4.16l3.43-2.15l-1.56-7.36l-3.29,3.14c-0.46-0.94-1.02-1.76-1.68-2.45
				c-0.18-0.2-0.37-0.38-0.57-0.55l2.01-4.64l-5.35-1.74l0,0l-1.28,4.68c-1.2,0-2.41,0.3-3.62,0.85l-0.59-4.42l-5.89,4.46l1.36,3.92
				c-1.06,1.21-2.03,2.61-2.87,4.18l-2.84-1.6l-3.06,8.35l3.28,0.55c-0.35,1.76-0.48,3.47-0.43,5.09l-3.43,2.15l1.56,7.36l3.29-3.14
				c0.59,1.2,1.34,2.22,2.25,3l-2.01,4.65l5.26,2.05l0.81-2.96l0.55-2.02c1.2,0,2.42-0.3,3.63-0.84l0.58,4.42l5.89-4.46l-1.36-3.92
				c0.83-0.95,1.61-2.02,2.32-3.2C389.83,302.66,390.01,302.33,390.19,302z M381.77,294.76c-1.62,4.61,0,9.37-2.92,8.35
				c-2.93-1.03-4-5.6-2.38-10.2c1.62-4.61,5.3-7.51,8.22-6.49C387.62,287.44,383.38,290.15,381.77,294.76z M384.68,286.42
				l-2.92,8.35C383.38,290.15,385.69,287.16,384.68,286.42z M381.77,294.76l-2.92,8.35C379.58,302.89,380.15,299.38,381.77,294.76z"
				/>
		</g>
		
			<linearGradient id="SVGID_00000085962160108641319520000014810908198629076122_" gradientUnits="userSpaceOnUse" x1="395.7311" y1="276.3802" x2="395.7311" y2="232.6357" gradientTransform="matrix(0.9656 0.26 -0.26 0.9656 63.6333 -54.681)">
			<stop  offset="0" style="stop-color:#1852A0"/>
			<stop  offset="1" style="stop-color:#067ED3"/>
		</linearGradient>
		<path style="fill-rule:evenodd;clip-rule:evenodd;fill:url(#SVGID_00000085962160108641319520000014810908198629076122_);" d="
			M393.02,303.6l3.06-8.35l-3.12-1.48l-0.5-0.24l0.33-4.6l3.46-1.69l-1.14-7.14l-7.55-2.46l1.39,3.31l2.63-5.36l-5.35-1.74
			l-2.2-0.72l-5.27-2.05l-0.98,3.6l-4.59-2.18l-5.89,4.46l1.79,4.82l-5.51,15.26l-2.72,9.91l5.23,0.57l-1.7,3.93l5.27,2.05
			l7.54,2.46l-1.21-2.42l-0.76-1.45l2.79,0.91l4.76,1.55l5.89-4.46l-3.64-4.29l4.6-2.83L393.02,303.6z M376.46,292.91
			c1.62-4.61,5.3-7.51,8.22-6.49l-2.92,8.35l-2.92,8.35C375.91,302.08,374.84,297.51,376.46,292.91z"/>
		<g>
			
				<linearGradient id="SVGID_00000112604752147401497860000013552816509598253494_" gradientUnits="userSpaceOnUse" x1="358.2546" y1="290.0914" x2="355.0373" y2="262.4775" gradientTransform="matrix(0.9438 0.3306 -0.5202 1.4851 181.3359 -235.9143)">
				<stop  offset="0" style="stop-color:#188DC1"/>
				<stop  offset="1" style="stop-color:#06BFE7"/>
			</linearGradient>
			<path style="fill-rule:evenodd;clip-rule:evenodd;fill:url(#SVGID_00000112604752147401497860000013552816509598253494_);" d="
				M385.48,301.14l3.06-8.35l-3.28-0.55c0.35-1.76,0.48-3.47,0.44-5.08l3.43-2.15l-1.56-7.36l-3.29,3.14c-0.58-1.2-1.34-2.22-2.25-3
				l2.01-4.64l-5.27-2.05l-1.36,4.99c-1.19,0.01-2.42,0.3-3.62,0.84l-0.58-4.42l-5.89,4.45l1.36,3.92
				c-1.06,1.21-2.03,2.62-2.87,4.19l-2.84-1.6l-3.06,8.35l3.28,0.55c-0.35,1.76-0.48,3.47-0.44,5.08l-3.43,2.15l1.56,7.36l3.29-3.14
				c0.58,1.2,1.34,2.22,2.25,3l-2.01,4.64l5.27,2.05l1.36-4.99c1.2-0.01,2.42-0.3,3.62-0.84l0.58,4.42l5.89-4.45l-1.36-3.92
				c1.06-1.21,2.03-2.62,2.87-4.19L385.48,301.14z M371.29,300.65c-2.93-1.03-3.99-5.59-2.38-10.2c1.61-4.61,5.3-7.51,8.23-6.49
				c2.93,1.03,3.99,5.59,2.38,10.2C377.9,298.77,374.22,301.67,371.29,300.65z"/>
		</g>
		<polygon class="st120" points="396.67,287.46 389.12,285.01 385.69,287.16 393.24,289.61 		"/>
		<polygon class="st121" points="388.67,310.1 381.12,307.64 379.77,303.73 387.31,306.19 		"/>
		<polygon class="st120" points="382.02,277.79 386.16,278.99 387.56,277.65 390.31,278.54 391.58,275.6 384.03,273.15 		"/>
		<path class="st120" d="M371.03,308.53l3.95,1.64l-0.33-2.49C374.65,307.68,372.53,308.81,371.03,308.53z"/>
		<path class="st120" d="M371.64,285.9l6.65,3.52c0,0,0.96-1.29,1.71-1.81C380.01,287.61,378.27,280.27,371.64,285.9z"/>
	</g>
	<polygon style="clip-path:url(#SVGID_00000004545968124113151770000008396291463156663176_);fill:#FF1D9C;" points="218.89,36.96 
		225.3,49.81 221.02,51.76 215.02,39.96 	"/>
	<polygon style="clip-path:url(#SVGID_00000004545968124113151770000008396291463156663176_);fill:#6877FF;" points="74.44,336.3 
		80.37,342.82 82.7,340.13 77.1,333.96 	"/>
	<polygon style="clip-path:url(#SVGID_00000004545968124113151770000008396291463156663176_);fill:#4F31E0;" points="376.21,115.37 
		370.23,119 367.84,114.45 374.37,110.64 	"/>
	<polygon style="clip-path:url(#SVGID_00000004545968124113151770000008396291463156663176_);fill:#4F31E0;" points="405.66,345.08 
		397.09,351.17 394.69,346.63 403.01,341.77 	"/>
	<g style="clip-path:url(#SVGID_00000004545968124113151770000008396291463156663176_);">
		
			<linearGradient id="SVGID_00000123414707764788493540000011227750376233018255_" gradientUnits="userSpaceOnUse" x1="408.449" y1="88.0975" x2="419.7806" y2="46.0142">
			<stop  offset="0" style="stop-color:#188DC1"/>
			<stop  offset="1" style="stop-color:#06BFE7"/>
		</linearGradient>
		
			<polygon style="fill-rule:evenodd;clip-rule:evenodd;fill:url(#SVGID_00000123414707764788493540000011227750376233018255_);" points="
			394.34,84.3 392.89,50.64 436.96,50.64 435.15,84.2 		"/>
		
			<linearGradient id="SVGID_00000124121362895126094050000000583286898758009233_" gradientUnits="userSpaceOnUse" x1="388.9714" y1="83.2426" x2="397.4216" y2="51.8603">
			<stop  offset="0" style="stop-color:#1852A0"/>
			<stop  offset="1" style="stop-color:#067ED3"/>
		</linearGradient>
		
			<polygon style="fill-rule:evenodd;clip-rule:evenodd;fill:url(#SVGID_00000124121362895126094050000000583286898758009233_);" points="
			392.89,50.64 391.57,52.62 392.89,84.3 394.34,84.3 		"/>
		<polygon class="st12" points="407.52,57.36 400.6,56.62 401.55,79.68 407.52,79.1 407.52,76.71 404.06,76.79 403.67,59.01 
			407.52,59.12 		"/>
		<polygon class="st12" points="421.68,57.36 428.6,56.62 427.65,79.68 421.68,79.1 421.68,76.71 425.14,76.79 425.54,59.01 
			421.68,59.12 		"/>
	</g>
	<g style="clip-path:url(#SVGID_00000004545968124113151770000008396291463156663176_);">
		
			<linearGradient id="SVGID_00000074426098285179197870000012114841210957572496_" gradientUnits="userSpaceOnUse" x1="125.8266" y1="160.5708" x2="133.5515" y2="131.8817" gradientTransform="matrix(-1 0 0 1 206.6559 0)">
			<stop  offset="0" style="stop-color:#188DC1"/>
			<stop  offset="1" style="stop-color:#06BFE7"/>
		</linearGradient>
		
			<polygon style="fill-rule:evenodd;clip-rule:evenodd;fill:url(#SVGID_00000074426098285179197870000012114841210957572496_);" points="
			90.45,157.98 91.44,135.03 61.39,135.03 62.63,157.91 		"/>
		
			<linearGradient id="SVGID_00000061448371533288608320000006651247808986526369_" gradientUnits="userSpaceOnUse" x1="112.5482" y1="157.2612" x2="118.3088" y2="135.8671" gradientTransform="matrix(-1 0 0 1 206.6559 0)">
			<stop  offset="0" style="stop-color:#1852A0"/>
			<stop  offset="1" style="stop-color:#067ED3"/>
		</linearGradient>
		
			<polygon style="fill-rule:evenodd;clip-rule:evenodd;fill:url(#SVGID_00000061448371533288608320000006651247808986526369_);" points="
			91.44,135.03 92.34,136.39 91.44,157.98 90.45,157.98 		"/>
		<path class="st12" d="M79.86,139.65c0,0,3.29-0.13,3.88,0.14c0.58,0.27-0.15,5.64-0.15,5.64l1.31,1.21l-1.23,1.19
			c0,0,0.06,5.44-0.71,5.89c-0.78,0.45-3.42,0-3.42,0v-1.36c0,0,2.16,0.14,2.52-0.15s0.32-5.04,0.32-5.04l0.58-0.64l-0.58-0.69
			c0,0,0.11-3.39,0.04-4.32c-0.04-0.62-2.56-0.65-2.56-0.65V139.65z"/>
		<path class="st12" d="M72.32,139.65c0,0-3.29-0.13-3.88,0.14c-0.58,0.27,0.15,5.64,0.15,5.64l-1.31,1.21l1.23,1.19
			c0,0-0.06,5.44,0.71,5.89c0.77,0.45,3.42,0,3.42,0v-1.36c0,0-2.16,0.14-2.52-0.15s-0.32-5.04-0.32-5.04l-0.58-0.64l0.58-0.69
			c0,0-0.11-3.39-0.04-4.32c0.04-0.62,2.56-0.65,2.56-0.65V139.65z"/>
	</g>
	<g style="clip-path:url(#SVGID_00000004545968124113151770000008396291463156663176_);">
		<g>
			<path class="st96" d="M343.96,87.33l-7.36-19.27l19.09,3.99L343.96,87.33z M337.39,68.74l6.72,17.58l10.7-13.94L337.39,68.74z"/>
		</g>
		<g>
			
				<rect x="394.29" y="355.71" transform="matrix(0.5912 -0.8065 0.8065 0.5912 -123.6708 467.9326)" class="st96" width="10.94" height="0.5"/>
		</g>
		<g>
			<polygon class="st96" points="336.01,279.16 329.07,270.51 329.46,270.2 336.4,278.85 			"/>
		</g>
		<g>
			<polygon class="st96" points="121.68,339.88 107.82,329.82 108.11,329.42 121.98,339.48 			"/>
		</g>
		<g>
			
				<rect x="106.33" y="334.4" transform="matrix(0.606 -0.7955 0.7955 0.606 -220.9359 223.2608)" class="st96" width="17.13" height="0.5"/>
		</g>
		<g>
			
				<rect x="94.69" y="184.72" transform="matrix(0.4651 -0.8852 0.8852 0.4651 -117.2322 185.5567)" class="st96" width="0.5" height="10.14"/>
		</g>
		<g>
			<polygon class="st96" points="444.15,71.37 443.77,71.04 454.14,59.21 454.52,59.54 			"/>
		</g>
		<g>
			
				<rect x="244.53" y="99.55" transform="matrix(0.8953 -0.4454 0.4454 0.8953 -21.0363 119.9891)" class="st96" width="0.5" height="10.41"/>
		</g>
		<g>
			
				<rect x="167.22" y="261.73" transform="matrix(0.767 -0.6416 0.6416 0.767 -127.3239 173.3178)" class="st96" width="15.54" height="0.5"/>
		</g>
	</g>
</g>
</svg>
