<svg width="65" height="65" viewBox="0 0 65 65" fill="none" xmlns="http://www.w3.org/2000/svg">
<path d="M14.2188 30.3188C14.2188 24.6238 14.2188 21.7764 15.3446 19.609C16.2934 17.7826 17.7826 16.2934 19.609 15.3446C21.7764 14.2188 24.6238 14.2188 30.3188 14.2188H34.6812C40.3762 14.2188 43.2236 14.2188 45.391 15.3446C47.2174 16.2934 48.7066 17.7826 49.6554 19.609C50.7812 21.7764 50.7812 24.6238 50.7812 30.3188V34.6812C50.7812 40.3762 50.7812 43.2236 49.6554 45.391C48.7066 47.2174 47.2174 48.7066 45.391 49.6554C43.2236 50.7812 40.3762 50.7812 34.6812 50.7812H30.3188C24.6238 50.7812 21.7764 50.7812 19.609 49.6554C17.7826 48.7066 16.2934 47.2174 15.3446 45.391C14.2188 43.2236 14.2188 40.3762 14.2188 34.6812V30.3188Z" stroke="white" stroke-width="4"/>
<path d="M40.6206 32.2314C40.6558 33.2978 40.4807 34.3607 40.1052 35.3594C39.7297 36.3581 39.1612 37.2731 38.4321 38.0521C37.7029 38.8311 36.8275 39.4589 35.8558 39.8996C34.8841 40.3403 33.8351 40.5853 32.7686 40.6206C31.7022 40.6558 30.6393 40.4807 29.6406 40.1052C28.6419 39.7297 27.7269 39.1612 26.9479 38.4321C26.1689 37.7029 25.5411 36.8275 25.1004 35.8558C24.6597 34.8841 24.4147 33.8351 24.3794 32.7686C24.3442 31.7022 24.5193 30.6393 24.8948 29.6406C25.2703 28.6419 25.8388 27.7269 26.5679 26.9479C27.2971 26.1689 28.1725 25.5411 29.1442 25.1004C30.1159 24.6597 31.1649 24.4147 32.2314 24.3794C33.2978 24.3442 34.3607 24.5193 35.3594 24.8948C36.3581 25.2703 37.2731 25.8388 38.0521 26.5679C38.8311 27.2971 39.4589 28.1725 39.8996 29.1442C40.3403 30.1159 40.5853 31.1649 40.6206 32.2314Z" stroke="white" stroke-width="3.5" stroke-linecap="round" stroke-linejoin="round"/>
<path d="M42.6292 22.3438H42.6562" stroke="white" stroke-width="4" stroke-linecap="round" stroke-linejoin="round"/>
</svg>
