<svg width="99" height="71" viewBox="0 0 99 71" fill="none" xmlns="http://www.w3.org/2000/svg">
<path d="M48.8847 3.7403C48.8847 6.18403 44.8748 8.16506 42.3071 8.16506C39.7393 8.16506 37.6577 6.18403 37.6577 3.7403C37.6577 1.29658 39.7392 0 42.307 0C44.8748 0 48.8847 1.29658 48.8847 3.7403Z" fill="#373737"/>
<path d="M59.9833 15.0452L62.7412 15.9072C64.2091 16.3659 65.4253 17.2087 66.3321 18.2803C68.4039 20.7288 68.8598 24.3722 67.0101 27.3601C66.2361 28.6104 64.6129 29.0265 63.3329 28.3028L62.1308 27.6231C59.6191 26.203 56.4334 27.3793 55.4474 30.091L54.9271 31.5216C53.9074 34.326 54.6414 37.468 56.7982 39.5303L59.6207 42.2291C63.0943 45.5505 63.6859 50.8847 61.0246 54.8865C57.1786 60.6696 50.5875 64.0193 43.6488 63.7171L37.6138 63.4543C36.2401 63.3944 35.6857 61.6551 36.7715 60.8114L47.5355 52.447C50.5494 50.1049 50.7346 45.6155 47.9239 43.0332L46.6371 41.851C43.9157 39.3507 42.4611 35.8523 42.5044 32.2841C42.521 30.9069 42.7608 29.5194 43.2371 28.1748L45.2835 22.3968C47.41 16.3927 53.9037 13.1451 59.9833 15.0452Z" fill="#3A3A3A"/>
<path d="M38.756 41.2507L39.1641 15.1326C39.1914 13.3852 40.2655 11.8251 41.8882 11.176L42.4365 10.9567C43.6606 10.467 45.0007 10.344 46.2935 10.6026C48.1088 10.9656 49.4155 12.5595 49.4155 14.4108V42.3032C49.4155 46.0214 48.4826 49.6802 46.7021 52.9444L41.4021 62.661C40.6579 64.0254 39.3557 64.9975 37.8361 65.3231C35.0395 65.9224 32.1917 64.5537 30.9126 61.9956L30.6397 61.4498C29.9413 60.053 30.0309 58.3915 30.8753 57.0778L36.721 47.9845C38.0138 45.9735 38.7187 43.6411 38.756 41.2507Z" fill="white"/>
<path d="M59.9833 15.0452L62.7412 15.9072C64.2091 16.3659 65.4253 17.2087 66.3321 18.2803C68.4039 20.7288 68.8598 24.3722 67.0101 27.3601C66.2361 28.6104 64.6129 29.0265 63.3329 28.3028L62.1308 27.6231C59.6191 26.203 56.4334 27.3793 55.4474 30.091L54.9271 31.5216C53.9074 34.326 54.6414 37.468 56.7982 39.5303L59.6207 42.2291C63.0943 45.5505 63.6859 50.8847 61.0246 54.8865C57.1786 60.6696 50.5875 64.0193 43.6488 63.7171L37.6138 63.4543C36.2401 63.3944 35.6857 61.6551 36.7715 60.8114L47.5355 52.447C50.5494 50.1049 50.7346 45.6155 47.9239 43.0332L46.6371 41.851C43.9157 39.3507 42.4611 35.8523 42.5044 32.2841C42.521 30.9069 42.7608 29.5194 43.2371 28.1748L45.2835 22.3968C47.41 16.3927 53.9037 13.1451 59.9833 15.0452Z" fill="#3A3A3A"/>
<path d="M39.9584 64.3209C41.1413 63.7294 44.7429 57.4755 46.6123 53.0832L35.1969 60.2502L33.896 63.4187L39.9584 64.3209Z" fill="white"/>
<path d="M69.7019 44.2188C69.7019 45.0704 69.366 45.4961 68.6941 45.4961C68.0613 45.4961 67.7292 45.0977 67.698 44.3008L67.241 32.6524C67.2253 32.168 67.3113 31.7422 67.4988 31.3751C67.7332 30.9219 68.073 30.6954 68.5183 30.6954C69.3074 30.6954 69.7019 31.2891 69.7019 32.4766V44.2188ZM79.1238 41.8633C79.1238 43.6602 78.4792 45.3047 77.1902 46.7969C76.0339 48.1329 74.5574 49.1524 72.7605 49.8555C72.5574 49.9336 72.3542 49.9727 72.1511 49.9727C71.8308 49.9727 71.5535 49.8672 71.3191 49.6563C71.0925 49.4532 70.9792 49.1954 70.9792 48.8829C70.9792 48.3907 71.2605 48.0196 71.823 47.7696C72.8621 47.3086 73.823 46.7188 74.7058 46.0001C75.7761 45.1251 76.4675 44.254 76.78 43.3868C76.4128 43.5665 75.9714 43.6563 75.4558 43.6563C74.5886 43.6563 73.9128 43.4102 73.4285 42.918C72.9441 42.418 72.7019 41.7344 72.7019 40.8672C72.7019 39.9844 72.9714 39.1524 73.5105 38.3711C74.1042 37.5118 74.8035 37.0821 75.6082 37.0821C76.7878 37.0821 77.6941 37.6094 78.3269 38.6641C78.8582 39.5469 79.1238 40.6133 79.1238 41.8633ZM76.8035 41.0899C76.7722 40.7149 76.655 40.3868 76.4519 40.1055C76.2175 39.7852 75.9246 39.6251 75.573 39.6251C75.3152 39.6251 75.0925 39.7149 74.905 39.8946C74.7175 40.0665 74.6238 40.2813 74.6238 40.5391C74.6238 41.0547 74.9636 41.3126 75.6433 41.3126C76.1433 41.3126 76.53 41.2383 76.8035 41.0899ZM85.8386 45.086H85.0535C83.491 45.086 82.4519 44.5391 81.9363 43.4454C81.6238 42.7735 81.4324 41.5118 81.3621 39.6602L81.0925 32.2188C81.0769 31.7969 81.1628 31.4415 81.3503 31.1524C81.5613 30.8165 81.8699 30.6485 82.2761 30.6485C83.073 30.6485 83.4714 31.1719 83.4714 32.2188V40.0938C83.4714 41.6016 84.0847 42.3555 85.3113 42.3555H85.8386V45.086ZM96.7722 41.4766C95.4597 41.8047 94.0417 42.3907 92.5183 43.2344C91.1902 43.9688 90.3503 44.4024 89.9988 44.5352C89.0144 44.9024 87.7761 45.086 86.2839 45.086H85.1589V42.3555H86.823C87.9558 42.3555 88.9246 42.2188 89.7292 41.9454C89.9167 41.8829 91.0613 41.4024 93.1628 40.504C91.0691 39.8555 89.8113 39.5313 89.3894 39.5313C89.2097 39.5313 88.9207 39.6485 88.5222 39.8829C88.1316 40.1172 87.8308 40.2344 87.6199 40.2344C87.0027 40.2344 86.6941 39.8946 86.6941 39.2149C86.6941 38.668 86.991 38.1407 87.5847 37.6329C88.1785 37.1251 88.7527 36.8711 89.3074 36.8711C89.9949 36.8711 91.0574 37.1251 92.4949 37.6329C94.1589 38.2188 95.5535 38.5743 96.6785 38.6993C97.4597 38.7852 97.8503 39.2579 97.8503 40.1172C97.8503 40.8438 97.491 41.2969 96.7722 41.4766ZM94.6863 48.2735C94.6863 48.6485 94.5535 48.9688 94.2878 49.2344C94.03 49.5001 93.7136 49.6329 93.3386 49.6329C92.9636 49.6329 92.6472 49.5001 92.3894 49.2344C92.1316 48.9688 92.0027 48.6485 92.0027 48.2735C92.0027 47.9063 92.1316 47.5899 92.3894 47.3243C92.655 47.0665 92.9714 46.9376 93.3386 46.9376C93.7136 46.9376 94.03 47.0665 94.2878 47.3243C94.5535 47.5821 94.6863 47.8985 94.6863 48.2735Z" fill="#3A3A3A"/>
<path d="M67.698 44.3008L68.1976 44.2812L68.1976 44.2812L67.698 44.3008ZM67.241 32.6524L66.7412 32.6685L66.7414 32.672L67.241 32.6524ZM67.4988 31.3751L67.0547 31.1453L67.0535 31.1477L67.4988 31.3751ZM69.2019 44.2188C69.2019 44.5924 69.1259 44.7802 69.0574 44.8671C69.0067 44.9314 68.9173 44.9961 68.6941 44.9961V45.9961C69.1428 45.9961 69.5573 45.848 69.8425 45.4865C70.1099 45.1476 70.2019 44.6968 70.2019 44.2188H69.2019ZM68.6941 44.9961C68.4902 44.9961 68.4048 44.9375 68.3546 44.8772C68.2881 44.7975 68.2111 44.6254 68.1976 44.2812L67.1984 44.3204C67.2161 44.7731 67.3208 45.1987 67.5863 45.5174C67.8681 45.8556 68.2651 45.9961 68.6941 45.9961V44.9961ZM68.1976 44.2812L67.7406 32.6328L66.7414 32.672L67.1984 44.3204L68.1976 44.2812ZM67.7407 32.6363C67.7273 32.2215 67.8013 31.8821 67.9441 31.6024L67.0535 31.1477C66.8213 31.6023 66.7234 32.1145 66.7412 32.6685L67.7407 32.6363ZM67.9429 31.6048C68.0307 31.435 68.1228 31.3373 68.2068 31.2813C68.2872 31.2277 68.3851 31.1954 68.5183 31.1954V30.1954C68.2062 30.1954 67.9116 30.2763 67.6521 30.4493C67.3962 30.6198 67.2012 30.862 67.0547 31.1453L67.9429 31.6048ZM68.5183 31.1954C68.7665 31.1954 68.8961 31.2767 68.9896 31.4174C69.107 31.5941 69.2019 31.9224 69.2019 32.4766H70.2019C70.2019 31.8433 70.0996 31.281 69.8225 30.864C69.5214 30.4109 69.0592 30.1954 68.5183 30.1954V31.1954ZM69.2019 32.4766V44.2188H70.2019V32.4766H69.2019ZM77.1902 46.7969L77.5682 47.1241L77.5686 47.1238L77.1902 46.7969ZM72.7605 49.8555L72.94 50.3222L72.9427 50.3211L72.7605 49.8555ZM71.3191 49.6563L71.6536 49.2847L71.6529 49.284L71.3191 49.6563ZM71.823 47.7696L71.6202 47.3125L71.6199 47.3127L71.823 47.7696ZM74.7058 46.0001L75.0215 46.3878L75.0223 46.3872L74.7058 46.0001ZM76.78 43.3868L77.2504 43.5563L77.6688 42.3952L76.5603 42.9377L76.78 43.3868ZM73.4285 42.918L73.0693 43.2659L73.0721 43.2687L73.4285 42.918ZM73.5105 38.3711L73.0991 38.0869L73.099 38.0872L73.5105 38.3711ZM78.3269 38.6641L77.8982 38.9214L77.8985 38.9219L78.3269 38.6641ZM76.8035 41.0899L77.042 41.5293L77.3288 41.3736L77.3017 41.0484L76.8035 41.0899ZM76.4519 40.1055L76.8573 39.8128L76.8554 39.8103L76.4519 40.1055ZM74.905 39.8946L75.243 40.2633L75.251 40.2556L74.905 39.8946ZM78.6238 41.8633C78.6238 43.5282 78.0306 45.0592 76.8118 46.4701L77.5686 47.1238C78.9279 45.5503 79.6238 43.7922 79.6238 41.8633H78.6238ZM76.8121 46.4697C75.7137 47.7388 74.3067 48.7136 72.5783 49.3899L72.9427 50.3211C74.808 49.5912 76.3541 48.5269 77.5682 47.1241L76.8121 46.4697ZM72.581 49.3888C72.431 49.4465 72.2886 49.4727 72.1511 49.4727V50.4727C72.4199 50.4727 72.6837 50.4208 72.94 50.3222L72.581 49.3888ZM72.1511 49.4727C71.9522 49.4727 71.7945 49.4115 71.6536 49.2847L70.9846 50.028C71.3124 50.323 71.7095 50.4727 72.1511 50.4727V49.4727ZM71.6529 49.284C71.5353 49.1786 71.4792 49.0577 71.4792 48.8829H70.4792C70.4792 49.3331 70.6498 49.7277 70.9853 50.0286L71.6529 49.284ZM71.4792 48.8829C71.4792 48.7392 71.5178 48.6309 71.5887 48.5374C71.6645 48.4374 71.798 48.3279 72.0261 48.2265L71.6199 47.3127C71.2855 47.4613 70.9971 47.6623 70.7917 47.9334C70.5813 48.211 70.4792 48.5344 70.4792 48.8829H71.4792ZM72.0257 48.2266C73.1054 47.7477 74.1043 47.1345 75.0215 46.3878L74.3901 45.6123C73.5417 46.3031 72.6187 46.8696 71.6202 47.3125L72.0257 48.2266ZM75.0223 46.3872C76.1301 45.4815 76.8956 44.5409 77.2504 43.5563L76.3096 43.2173C76.0395 43.967 75.4221 44.7686 74.3893 45.6129L75.0223 46.3872ZM76.5603 42.9377C76.277 43.0763 75.9146 43.1563 75.4558 43.1563V44.1563C76.0283 44.1563 76.5487 44.0566 76.9998 43.8359L76.5603 42.9377ZM75.4558 43.1563C74.6864 43.1563 74.1525 42.9409 73.7848 42.5673L73.0721 43.2687C73.6732 43.8795 74.4909 44.1563 75.4558 44.1563V43.1563ZM73.7876 42.5701C73.4145 42.185 73.2019 41.6381 73.2019 40.8672H72.2019C72.2019 41.8307 72.4737 42.651 73.0693 43.2659L73.7876 42.5701ZM73.2019 40.8672C73.2019 40.0936 73.436 39.3595 73.922 38.6551L73.099 38.0872C72.5068 38.9453 72.2019 39.8753 72.2019 40.8672H73.2019ZM73.9219 38.6554C74.4532 37.8863 75.0155 37.5821 75.6082 37.5821V36.5821C74.5914 36.5821 73.7553 37.1372 73.0991 38.0869L73.9219 38.6554ZM75.6082 37.5821C76.6033 37.5821 77.351 38.0094 77.8982 38.9214L78.7557 38.4069C78.0372 37.2094 76.9724 36.5821 75.6082 36.5821V37.5821ZM77.8985 38.9219C78.3738 39.7118 78.6238 40.6848 78.6238 41.8633H79.6238C79.6238 40.5419 79.3425 39.382 78.7553 38.4063L77.8985 38.9219ZM77.3017 41.0484C77.2636 40.5907 77.1181 40.174 76.8572 39.8128L76.0466 40.3983C76.192 40.5996 76.2808 40.8391 76.3052 41.1314L77.3017 41.0484ZM76.8554 39.8103C76.5409 39.3804 76.1063 39.1251 75.573 39.1251V40.1251C75.7428 40.1251 75.8942 40.1901 76.0484 40.4008L76.8554 39.8103ZM75.573 39.1251C75.1852 39.1251 74.8389 39.2654 74.5591 39.5336L75.251 40.2556C75.3462 40.1644 75.4452 40.1251 75.573 40.1251V39.1251ZM74.5672 39.526C74.2748 39.794 74.1238 40.1433 74.1238 40.5391H75.1238C75.1238 40.4193 75.1603 40.3389 75.2429 40.2632L74.5672 39.526ZM74.1238 40.5391C74.1238 40.9168 74.2554 41.274 74.5765 41.5175C74.8714 41.7413 75.2545 41.8126 75.6433 41.8126V40.8126C75.3524 40.8126 75.2257 40.7549 75.1809 40.7208C75.162 40.7066 75.1238 40.6771 75.1238 40.5391H74.1238ZM75.6433 41.8126C76.1813 41.8126 76.6638 41.7346 77.042 41.5293L76.5649 40.6505C76.3962 40.742 76.1053 40.8126 75.6433 40.8126V41.8126ZM85.8386 45.086V45.586H86.3386V45.086H85.8386ZM81.9363 43.4454L81.4829 43.6562L81.484 43.6586L81.9363 43.4454ZM81.3621 39.6602L80.8624 39.6783L80.8624 39.6792L81.3621 39.6602ZM81.0925 32.2188L81.5922 32.2007L81.5922 32.2003L81.0925 32.2188ZM81.3503 31.1524L81.7699 31.4245L81.7738 31.4183L81.3503 31.1524ZM85.8386 42.3555H86.3386V41.8555H85.8386V42.3555ZM85.8386 44.586H85.0535V45.586H85.8386V44.586ZM85.0535 44.586C83.6169 44.586 82.7962 44.097 82.3885 43.2322L81.484 43.6586C82.1076 44.9813 83.3651 45.586 85.0535 45.586V44.586ZM82.3896 43.2345C82.1246 42.6646 81.9322 41.4973 81.8617 39.6412L80.8624 39.6792C80.9326 41.5262 81.123 42.8824 81.4829 43.6562L82.3896 43.2345ZM81.8617 39.6421L81.5922 32.2007L80.5929 32.2369L80.8624 39.6783L81.8617 39.6421ZM81.5922 32.2003C81.5795 31.8577 81.6499 31.6094 81.7698 31.4245L80.9309 30.8803C80.6758 31.2735 80.5743 31.7361 80.5929 32.2373L81.5922 32.2003ZM81.7738 31.4183C81.8906 31.2323 82.0368 31.1485 82.2761 31.1485V30.1485C81.7029 30.1485 81.232 30.4007 80.9269 30.8865L81.7738 31.4183ZM82.2761 31.1485C82.5553 31.1485 82.6904 31.2331 82.7748 31.3439C82.8787 31.4805 82.9714 31.7446 82.9714 32.2188H83.9714C83.9714 31.6461 83.8649 31.1251 83.5705 30.7382C83.2564 30.3256 82.7938 30.1485 82.2761 30.1485V31.1485ZM82.9714 32.2188V40.0938H83.9714V32.2188H82.9714ZM82.9714 40.0938C82.9714 40.9026 83.1339 41.602 83.5435 42.1056C83.9693 42.629 84.5905 42.8555 85.3113 42.8555V41.8555C84.8055 41.8555 84.5068 41.7051 84.3193 41.4746C84.1157 41.2243 83.9714 40.7928 83.9714 40.0938H82.9714ZM85.3113 42.8555H85.8386V41.8555H85.3113V42.8555ZM85.3386 42.3555V45.086H86.3386V42.3555H85.3386ZM92.5183 43.2344L92.7603 43.672L92.7606 43.6718L92.5183 43.2344ZM89.9988 44.5352L90.1735 45.0037L90.1755 45.0029L89.9988 44.5352ZM85.1589 45.086H84.6589V45.586H85.1589V45.086ZM85.1589 42.3555V41.8555H84.6589V42.3555H85.1589ZM89.7292 41.9454L89.5711 41.471L89.5684 41.472L89.7292 41.9454ZM93.1628 40.504L93.3594 40.9637L94.6105 40.4289L93.3108 40.0263L93.1628 40.504ZM88.5222 39.8829L88.2687 39.4519L88.265 39.4541L88.5222 39.8829ZM92.4949 37.6329L92.3283 38.1043L92.3288 38.1045L92.4949 37.6329ZM96.6785 38.6993L96.6233 39.1962L96.6238 39.1963L96.6785 38.6993ZM94.2878 49.2344L93.9342 48.8808L93.9291 48.8862L94.2878 49.2344ZM92.3894 47.3243L92.0412 46.9655L92.0358 46.9707L92.0306 46.976L92.3894 47.3243ZM94.2878 47.3243L93.9342 47.6779L93.9396 47.6831L94.2878 47.3243ZM96.6509 40.9915C95.2862 41.3327 93.8273 41.9379 92.2761 42.797L92.7606 43.6718C94.2562 42.8435 95.6333 42.2767 96.8935 41.9617L96.6509 40.9915ZM92.2764 42.7969C90.9362 43.5379 90.1322 43.9503 89.8221 44.0675L90.1755 45.0029C90.5685 44.8545 91.4442 44.3997 92.7603 43.672L92.2764 42.7969ZM89.824 44.0667C88.9137 44.4063 87.7395 44.586 86.2839 44.586V45.586C87.8127 45.586 89.1151 45.3985 90.1735 45.0037L89.824 44.0667ZM86.2839 44.586H85.1589V45.586H86.2839V44.586ZM85.6589 45.086V42.3555H84.6589V45.086H85.6589ZM85.1589 42.8555H86.823V41.8555H85.1589V42.8555ZM86.823 42.8555C87.9935 42.8555 89.0196 42.7146 89.8901 42.4188L89.5684 41.472C88.8295 41.723 87.9182 41.8555 86.823 41.8555V42.8555ZM89.8874 42.4197C90.1006 42.3486 91.2753 41.8547 93.3594 40.9637L92.9663 40.0442C90.8472 40.9501 89.7329 41.4171 89.5711 41.471L89.8874 42.4197ZM93.3108 40.0263C92.2607 39.7011 91.4141 39.4553 90.774 39.2903C90.157 39.1312 89.6748 39.0313 89.3894 39.0313V40.0313C89.5259 40.0313 89.8836 40.0935 90.5244 40.2586C91.1421 40.4179 91.9713 40.6584 93.0149 40.9816L93.3108 40.0263ZM89.3894 39.0313C89.2044 39.0313 89.0168 39.0882 88.85 39.1558C88.6748 39.2268 88.48 39.3276 88.2687 39.4519L88.7757 40.3138C88.9629 40.2037 89.1118 40.1287 89.2257 40.0826C89.348 40.033 89.3947 40.0313 89.3894 40.0313V39.0313ZM88.265 39.4541C87.8811 39.6845 87.683 39.7344 87.6199 39.7344V40.7344C87.9786 40.7344 88.3821 40.55 88.7795 40.3116L88.265 39.4541ZM87.6199 39.7344C87.4015 39.7344 87.3257 39.6765 87.2957 39.6434C87.2573 39.6012 87.1941 39.489 87.1941 39.2149H86.1941C86.1941 39.6205 86.2851 40.0181 86.5554 40.3157C86.8339 40.6224 87.2211 40.7344 87.6199 40.7344V39.7344ZM87.1941 39.2149C87.1941 38.8684 87.3778 38.4677 87.9097 38.0128L87.2597 37.2529C86.6041 37.8136 86.1941 38.4676 86.1941 39.2149H87.1941ZM87.9097 38.0128C88.4495 37.5512 88.9125 37.3711 89.3074 37.3711V36.3711C88.5929 36.3711 87.9074 36.6989 87.2597 37.2529L87.9097 38.0128ZM89.3074 37.3711C89.9026 37.3711 90.8952 37.5981 92.3283 38.1043L92.6614 37.1614C91.2195 36.6521 90.0871 36.3711 89.3074 36.3711V37.3711ZM92.3288 38.1045C94.0112 38.6969 95.4456 39.0654 96.6233 39.1962L96.7337 38.2023C95.6613 38.0832 94.3067 37.7407 92.6609 37.1612L92.3288 38.1045ZM96.6238 39.1963C96.9231 39.2292 97.081 39.3267 97.172 39.4367C97.2684 39.5534 97.3503 39.7577 97.3503 40.1172H98.3503C98.3503 39.6174 98.237 39.1557 97.9428 38.7997C97.6431 38.4371 97.215 38.2553 96.7331 38.2023L96.6238 39.1963ZM97.3503 40.1172C97.3503 40.3972 97.2823 40.5738 97.1891 40.6913C97.095 40.8099 96.9338 40.9208 96.6509 40.9915L96.8935 41.9617C97.3294 41.8527 97.7072 41.6473 97.9726 41.3127C98.2387 40.9771 98.3503 40.5638 98.3503 40.1172H97.3503ZM94.1863 48.2735C94.1863 48.5156 94.1063 48.7088 93.9343 48.8809L94.6414 49.588C95.0006 49.2288 95.1863 48.7814 95.1863 48.2735H94.1863ZM93.9291 48.8862C93.7668 49.0534 93.5804 49.1329 93.3386 49.1329V50.1329C93.8468 50.1329 94.2933 49.9467 94.6466 49.5827L93.9291 48.8862ZM93.3386 49.1329C93.0968 49.1329 92.9105 49.0534 92.7482 48.8862L92.0306 49.5827C92.384 49.9467 92.8304 50.1329 93.3386 50.1329V49.1329ZM92.7482 48.8862C92.5823 48.7152 92.5027 48.5204 92.5027 48.2735H91.5027C91.5027 48.7766 91.6809 49.2224 92.0306 49.5827L92.7482 48.8862ZM92.5027 48.2735C92.5027 48.0375 92.5801 47.8457 92.7482 47.6725L92.0306 46.976C91.6831 47.3341 91.5027 47.7751 91.5027 48.2735H92.5027ZM92.7376 47.6831C92.9108 47.515 93.1026 47.4376 93.3386 47.4376V46.4376C92.8402 46.4376 92.3992 46.6179 92.0412 46.9655L92.7376 47.6831ZM93.3386 47.4376C93.5852 47.4376 93.7732 47.5167 93.9343 47.6778L94.6414 46.9707C94.2869 46.6162 93.842 46.4376 93.3386 46.4376V47.4376ZM93.9396 47.6831C94.1068 47.8453 94.1863 48.0317 94.1863 48.2735H95.1863C95.1863 47.7653 95.0001 47.3188 94.6361 46.9655L93.9396 47.6831Z" fill="#3A3A3A"/>
<path d="M14.1211 40.17C14.1211 42.0606 13.5781 43.6271 12.4922 44.8692C11.2969 46.2286 9.65625 46.9083 7.57031 46.9083C5.72656 46.9083 4.28516 46.3419 3.24609 45.2091C2.36328 44.2403 1.92188 43.0802 1.92188 41.7286C1.92188 40.9005 2.0625 40.0646 2.34375 39.2208C2.70312 38.1427 3.1875 37.6036 3.79688 37.6036C4.40625 37.6036 4.71094 37.9239 4.71094 38.5646C4.71094 38.8536 4.625 39.295 4.45312 39.8888C4.28125 40.4747 4.19531 40.92 4.19531 41.2247C4.19531 42.1778 4.5625 42.92 5.29688 43.4513C5.94531 43.9278 6.76562 44.1661 7.75781 44.1661C8.97656 44.1661 9.92969 43.8731 10.6172 43.2872C11.3594 42.6544 11.7305 41.7403 11.7305 40.545C11.7305 40.2325 11.6406 39.7599 11.4609 39.1271C11.2812 38.4942 11.1914 38.0294 11.1914 37.7325C11.1914 36.8575 11.6094 36.42 12.4453 36.42C13.0312 36.42 13.4805 36.9278 13.793 37.9435C14.0117 38.6544 14.1211 39.3966 14.1211 40.17ZM8.96484 34.1817C8.96484 34.5567 8.83594 34.8771 8.57812 35.1427C8.32031 35.4083 8.00391 35.5411 7.62891 35.5411C7.25391 35.5411 6.9375 35.4083 6.67969 35.1427C6.42188 34.8771 6.29297 34.5567 6.29297 34.1817C6.29297 33.8067 6.42188 33.4903 6.67969 33.2325C6.9375 32.9747 7.25391 32.8458 7.62891 32.8458C8.00391 32.8458 8.32031 32.9747 8.57812 33.2325C8.83594 33.4903 8.96484 33.8067 8.96484 34.1817ZM23.5312 40.4513C23.5312 42.2481 22.8867 43.8927 21.5977 45.3849C20.4414 46.7208 18.9648 47.7403 17.168 48.4435C16.9648 48.5216 16.7617 48.5606 16.5586 48.5606C16.2383 48.5606 15.9609 48.4552 15.7266 48.2442C15.5 48.0411 15.3867 47.7833 15.3867 47.4708C15.3867 46.9786 15.668 46.6075 16.2305 46.3575C17.2695 45.8966 18.2305 45.3067 19.1133 44.588C20.1836 43.713 20.875 42.8419 21.1875 41.9747C20.8203 42.1544 20.3789 42.2442 19.8633 42.2442C18.9961 42.2442 18.3203 41.9981 17.8359 41.506C17.3516 41.006 17.1094 40.3224 17.1094 39.4552C17.1094 38.5724 17.3789 37.7403 17.918 36.9591C18.5117 36.0997 19.2109 35.67 20.0156 35.67C21.1953 35.67 22.1016 36.1974 22.7344 37.2521C23.2656 38.1349 23.5312 39.2013 23.5312 40.4513ZM21.2109 39.6778C21.1797 39.3028 21.0625 38.9747 20.8594 38.6935C20.625 38.3731 20.332 38.213 19.9805 38.213C19.7227 38.213 19.5 38.3028 19.3125 38.4825C19.125 38.6544 19.0312 38.8692 19.0312 39.1271C19.0312 39.6427 19.3711 39.9005 20.0508 39.9005C20.5508 39.9005 20.9375 39.8263 21.2109 39.6778ZM32.4258 33.3028C32.4258 33.6778 32.293 33.9981 32.0273 34.2638C31.7695 34.5294 31.4531 34.6622 31.0781 34.6622C30.7031 34.6622 30.3867 34.5294 30.1289 34.2638C29.8711 33.9981 29.7422 33.6778 29.7422 33.3028C29.7422 32.9356 29.8711 32.6231 30.1289 32.3653C30.3945 32.0997 30.7109 31.9669 31.0781 31.9669C31.4531 31.9669 31.7695 32.0958 32.0273 32.3536C32.293 32.6114 32.4258 32.9278 32.4258 33.3028ZM33.1523 38.6114C33.1758 38.9161 33.1875 39.2091 33.1875 39.4903C33.1875 41.6153 32.5664 43.42 31.3242 44.9044C30.1445 46.3263 28.5078 47.3341 26.4141 47.9278C26.25 47.9747 26.0703 47.9981 25.875 47.9981C25.1016 47.9981 24.7148 47.6466 24.7148 46.9435C24.7148 46.3575 25.0703 45.9044 25.7812 45.5841C27.5938 44.7638 28.832 43.9981 29.4961 43.2872C30.2695 42.4591 30.6562 41.3497 30.6562 39.9591C30.6562 39.8028 30.6445 39.5685 30.6211 39.256C30.5977 38.9435 30.5859 38.7091 30.5859 38.5528C30.5859 37.2716 30.9727 36.631 31.7461 36.631C32.582 36.631 33.0508 37.2911 33.1523 38.6114Z" fill="white"/>
<path d="M12.4922 44.8692L12.9428 45.2654L12.9439 45.2641L12.4922 44.8692ZM3.24609 45.2091L2.80261 45.6132L2.80393 45.6147L3.24609 45.2091ZM4.45312 39.8888L5.02887 40.0577L5.02946 40.0556L4.45312 39.8888ZM5.29688 43.4513L5.65221 42.9678L5.64855 42.9651L5.29688 43.4513ZM10.6172 43.2872L11.0064 43.7439L11.0065 43.7438L10.6172 43.2872ZM13.5211 40.17C13.5211 41.9379 13.0169 43.3574 12.0405 44.4743L12.9439 45.2641C14.1393 43.8967 14.7211 42.1833 14.7211 40.17H13.5211ZM12.0416 44.473C10.9781 45.6825 9.51283 46.3083 7.57031 46.3083V47.5083C9.79967 47.5083 11.6156 46.7747 12.9428 45.2654L12.0416 44.473ZM7.57031 46.3083C5.85829 46.3083 4.59121 45.7879 3.68826 44.8035L2.80393 45.6147C3.9791 46.8959 5.59484 47.5083 7.57031 47.5083V46.3083ZM3.68957 44.8049C2.91087 43.9504 2.52187 42.9358 2.52187 41.7286H1.32187C1.32187 43.2245 1.81569 44.5302 2.80262 45.6132L3.68957 44.8049ZM2.52187 41.7286C2.52187 40.9696 2.65059 40.1976 2.91296 39.4105L1.77454 39.0311C1.47441 39.9315 1.32187 40.8314 1.32187 41.7286H2.52187ZM2.91296 39.4105C3.0798 38.91 3.25804 38.5924 3.42286 38.4089C3.57477 38.2399 3.69473 38.2036 3.79688 38.2036V37.0036C3.28965 37.0036 2.86273 37.2369 2.53026 37.6069C2.21071 37.9625 1.96707 38.4535 1.77454 39.0311L2.91296 39.4105ZM3.79688 38.2036C4.00121 38.2036 4.04621 38.2558 4.04769 38.2574C4.05451 38.2645 4.11094 38.3294 4.11094 38.5646H5.31094C5.31094 38.159 5.21502 37.7435 4.91716 37.4303C4.61395 37.1116 4.20192 37.0036 3.79688 37.0036V38.2036ZM4.11094 38.5646C4.11094 38.7632 4.0466 39.1353 3.87679 39.7219L5.02946 40.0556C5.2034 39.4547 5.31094 38.944 5.31094 38.5646H4.11094ZM3.87738 39.7199C3.70215 40.3173 3.59531 40.8306 3.59531 41.2247H4.79531C4.79531 41.0095 4.86035 40.6321 5.02887 40.0577L3.87738 39.7199ZM3.59531 41.2247C3.59531 42.3587 4.04563 43.2867 4.9452 43.9374L5.64855 42.9651C5.07937 42.5534 4.79531 41.997 4.79531 41.2247H3.59531ZM4.94155 43.9347C5.71498 44.5032 6.66808 44.7661 7.75781 44.7661V43.5661C6.86317 43.5661 6.17564 43.3525 5.6522 42.9678L4.94155 43.9347ZM7.75781 44.7661C9.06914 44.7661 10.1775 44.4503 11.0064 43.7439L10.228 42.8306C9.6819 43.296 8.88398 43.5661 7.75781 43.5661V44.7661ZM11.0065 43.7438C11.9121 42.9716 12.3305 41.8728 12.3305 40.545H11.1305C11.1305 41.6079 10.8067 42.3372 10.2279 42.8306L11.0065 43.7438ZM12.3305 40.545C12.3305 40.1442 12.2201 39.604 12.0381 38.9632L10.8838 39.2909C11.0612 39.9157 11.1305 40.3208 11.1305 40.545H12.3305ZM12.0381 38.9632C11.8598 38.3351 11.7914 37.9395 11.7914 37.7325H10.5914C10.5914 38.1193 10.7027 38.6534 10.8838 39.2909L12.0381 38.9632ZM11.7914 37.7325C11.7914 37.3808 11.8758 37.2284 11.9387 37.1626C11.9967 37.1019 12.127 37.02 12.4453 37.02V35.82C11.9277 35.82 11.431 35.9569 11.071 36.3337C10.7159 36.7054 10.5914 37.2092 10.5914 37.7325H11.7914ZM12.4453 37.02C12.5387 37.02 12.6418 37.0509 12.7723 37.1984C12.9172 37.3623 13.0756 37.6523 13.2195 38.1199L14.3664 37.767C14.1978 37.2189 13.9753 36.7473 13.6711 36.4033C13.3523 36.043 12.9379 35.82 12.4453 35.82V37.02ZM13.2195 38.1199C13.42 38.7714 13.5211 39.454 13.5211 40.17H14.7211C14.7211 39.3392 14.6035 38.5374 14.3664 37.767L13.2195 38.1199ZM8.36484 34.1817C8.36484 34.403 8.29514 34.5728 8.14758 34.7248L9.00867 35.5606C9.37673 35.1813 9.56484 34.7105 9.56484 34.1817H8.36484ZM8.14758 34.7248C8.00441 34.8723 7.84406 34.9411 7.62891 34.9411V36.1411C8.16375 36.1411 8.63621 35.9443 9.00867 35.5606L8.14758 34.7248ZM7.62891 34.9411C7.41375 34.9411 7.2534 34.8723 7.11024 34.7248L6.24914 35.5606C6.6216 35.9443 7.09406 36.1411 7.62891 36.1411V34.9411ZM7.11024 34.7248C6.96267 34.5728 6.89297 34.403 6.89297 34.1817H5.69297C5.69297 34.7105 5.88108 35.1813 6.24914 35.5606L7.11024 34.7248ZM6.89297 34.1817C6.89297 33.9608 6.9622 33.7985 7.10395 33.6568L6.25542 32.8083C5.88155 33.1821 5.69297 33.6527 5.69297 34.1817H6.89297ZM7.10395 33.6568C7.2457 33.515 7.40796 33.4458 7.62891 33.4458V32.2458C7.09985 32.2458 6.6293 32.4344 6.25542 32.8083L7.10395 33.6568ZM7.62891 33.4458C7.84985 33.4458 8.01211 33.515 8.15386 33.6568L9.00239 32.8083C8.62851 32.4344 8.15796 32.2458 7.62891 32.2458V33.4458ZM8.15386 33.6568C8.29561 33.7985 8.36484 33.9608 8.36484 34.1817H9.56484C9.56484 33.6527 9.37626 33.1821 9.00239 32.8083L8.15386 33.6568ZM21.5977 45.3849L22.0513 45.7775L22.0517 45.7771L21.5977 45.3849ZM17.168 48.4435L17.3834 49.0035L17.3866 49.0022L17.168 48.4435ZM15.7266 48.2442L16.1279 47.7983L16.1271 47.7975L15.7266 48.2442ZM16.2305 46.3575L15.9872 45.8091L15.9868 45.8092L16.2305 46.3575ZM19.1133 44.588L19.4921 45.0533L19.493 45.0525L19.1133 44.588ZM21.1875 41.9747L21.752 42.1781L22.2541 40.7848L20.9238 41.4358L21.1875 41.9747ZM17.8359 41.506L17.405 41.9234L17.4083 41.9268L17.8359 41.506ZM17.918 36.9591L17.4243 36.618L17.4241 36.6183L17.918 36.9591ZM22.7344 37.2521L22.2199 37.5607L22.2203 37.5614L22.7344 37.2521ZM21.2109 39.6778L21.4972 40.2051L21.8414 40.0183L21.8089 39.628L21.2109 39.6778ZM20.8594 38.6935L21.3458 38.3422L21.3436 38.3392L20.8594 38.6935ZM19.3125 38.4825L19.718 38.9249L19.7276 38.9157L19.3125 38.4825ZM22.9312 40.4513C22.9312 42.0897 22.3484 43.598 21.1436 44.9926L22.0517 45.7771C23.425 44.1873 24.1313 42.4066 24.1313 40.4513H22.9312ZM21.144 44.9922C20.0572 46.2479 18.6641 47.2137 16.9493 47.8847L17.3866 49.0022C19.2656 48.2669 20.8256 47.1937 22.0513 45.7775L21.144 44.9922ZM16.9526 47.8834C16.8132 47.937 16.683 47.9606 16.5586 47.9606V49.1606C16.8405 49.1606 17.1164 49.1061 17.3834 49.0035L16.9526 47.8834ZM16.5586 47.9606C16.3839 47.9606 16.2502 47.9083 16.1279 47.7983L15.3252 48.6902C15.6716 49.002 16.0926 49.1606 16.5586 49.1606V47.9606ZM16.1271 47.7975C16.0313 47.7116 15.9867 47.6181 15.9867 47.4708H14.7867C14.7867 47.9485 14.9687 48.3706 15.326 48.691L16.1271 47.7975ZM15.9867 47.4708C15.9867 47.3476 16.0189 47.2608 16.0758 47.1858C16.1387 47.1028 16.2567 47.0024 16.4742 46.9058L15.9868 45.8092C15.6417 45.9626 15.3379 46.1727 15.1195 46.4609C14.8951 46.7569 14.7867 47.1018 14.7867 47.4708H15.9867ZM16.4738 46.906C17.5616 46.4234 18.5681 45.8056 19.4921 45.0533L18.7345 44.1227C17.8929 44.8079 16.9775 45.3697 15.9872 45.8091L16.4738 46.906ZM19.493 45.0525C20.6084 44.1407 21.3887 43.1863 21.752 42.1781L20.623 41.7713C20.3613 42.4975 19.7588 43.2853 18.7335 44.1235L19.493 45.0525ZM20.9238 41.4358C20.6573 41.5662 20.3107 41.6442 19.8633 41.6442V42.8442C20.4471 42.8442 20.9833 42.7426 21.4512 42.5136L20.9238 41.4358ZM19.8633 41.6442C19.1134 41.6442 18.6079 41.435 18.2636 41.0851L17.4083 41.9268C18.0327 42.5613 18.8788 42.8442 19.8633 42.8442V41.6442ZM18.2669 41.0885C17.9161 40.7263 17.7094 40.2068 17.7094 39.4552H16.5094C16.5094 40.4379 16.7871 41.2856 17.405 41.9234L18.2669 41.0885ZM17.7094 39.4552C17.7094 38.7034 17.9364 37.9888 18.4118 37.2998L17.4241 36.6183C16.8214 37.4918 16.5094 38.4414 16.5094 39.4552H17.7094ZM18.4116 37.3001C18.9304 36.5492 19.4654 36.27 20.0156 36.27V35.07C18.9565 35.07 18.093 35.6502 17.4243 36.618L18.4116 37.3001ZM20.0156 36.27C20.9738 36.27 21.6899 36.6774 22.2199 37.5607L23.2489 36.9434C22.5133 35.7174 21.4168 35.07 20.0156 35.07V36.27ZM22.2203 37.5614C22.6844 38.3327 22.9312 39.287 22.9312 40.4513H24.1313C24.1313 39.1155 23.8468 37.937 23.2485 36.9427L22.2203 37.5614ZM21.8089 39.628C21.7693 39.1538 21.6182 38.7193 21.3458 38.3422L20.373 39.0448C20.5068 39.2301 20.59 39.4519 20.613 39.7277L21.8089 39.628ZM21.3436 38.3392C21.013 37.8873 20.5501 37.613 19.9805 37.613V38.813C20.114 38.813 20.237 38.859 20.3752 39.0478L21.3436 38.3392ZM19.9805 37.613C19.5667 37.613 19.1956 37.7635 18.8974 38.0493L19.7276 38.9157C19.8044 38.8422 19.8786 38.813 19.9805 38.813V37.613ZM18.9071 38.0402C18.5937 38.3275 18.4312 38.7037 18.4312 39.1271H19.6313C19.6313 39.0348 19.6563 38.9813 19.7179 38.9248L18.9071 38.0402ZM18.4312 39.1271C18.4312 39.5287 18.5723 39.9187 18.9235 40.1851C19.2435 40.4279 19.6522 40.5005 20.0508 40.5005V39.3005C19.7697 39.3005 19.6686 39.2442 19.6488 39.2291C19.6443 39.2257 19.6453 39.2263 19.6443 39.2241C19.6418 39.2183 19.6313 39.1908 19.6313 39.1271H18.4312ZM20.0508 40.5005C20.5964 40.5005 21.098 40.4218 21.4972 40.2051L20.9247 39.1505C20.777 39.2307 20.5052 39.3005 20.0508 39.3005V40.5005ZM32.0273 34.2638L31.603 33.8395L31.5968 33.8459L32.0273 34.2638ZM32.0273 32.3536L31.603 32.7779L31.6095 32.7842L32.0273 32.3536ZM31.3242 44.9044L30.8641 44.5193L30.8625 44.5213L31.3242 44.9044ZM26.4141 47.9278L26.2504 47.3506L26.2492 47.3509L26.4141 47.9278ZM25.7812 45.5841L26.0277 46.1311L26.0286 46.1307L25.7812 45.5841ZM29.4961 43.2872L29.9346 43.6968L29.9346 43.6967L29.4961 43.2872ZM31.8258 33.3028C31.8258 33.5184 31.7564 33.6862 31.6031 33.8395L32.4516 34.688C32.8295 34.3101 33.0258 33.8373 33.0258 33.3028H31.8258ZM31.5968 33.8459C31.4536 33.9934 31.2933 34.0622 31.0781 34.0622V35.2622C31.613 35.2622 32.0854 35.0654 32.4579 34.6817L31.5968 33.8459ZM31.0781 34.0622C30.863 34.0622 30.7026 33.9934 30.5595 33.8459L29.6984 34.6817C30.0708 35.0654 30.5433 35.2622 31.0781 35.2622V34.0622ZM30.5595 33.8459C30.4119 33.6938 30.3422 33.5241 30.3422 33.3028H29.1422C29.1422 33.8316 29.3303 34.3024 29.6984 34.6817L30.5595 33.8459ZM30.3422 33.3028C30.3422 33.0935 30.4088 32.934 30.5532 32.7896L29.7046 31.9411C29.3334 32.3123 29.1422 32.7778 29.1422 33.3028H30.3422ZM30.5532 32.7896C30.7092 32.6336 30.8741 32.5669 31.0781 32.5669V31.3669C30.5477 31.3669 30.0799 31.5658 29.7046 31.9411L30.5532 32.7896ZM31.0781 32.5669C31.2991 32.5669 31.4613 32.6361 31.6031 32.7779L32.4516 31.9293C32.0777 31.5555 31.6072 31.3669 31.0781 31.3669V32.5669ZM31.6095 32.7842C31.757 32.9273 31.8258 33.0877 31.8258 33.3028H33.0258C33.0258 32.768 32.829 32.2955 32.4452 31.9231L31.6095 32.7842ZM32.5541 38.6574C32.5765 38.9481 32.5875 39.2257 32.5875 39.4903H33.7875C33.7875 39.1925 33.7751 38.8841 33.7506 38.5654L32.5541 38.6574ZM32.5875 39.4903C32.5875 41.4893 32.0069 43.1537 30.8641 44.5193L31.7844 45.2895C33.1259 43.6863 33.7875 41.7414 33.7875 39.4903H32.5875ZM30.8625 44.5213C29.7732 45.8341 28.2487 46.7839 26.2504 47.3506L26.5778 48.5051C28.7669 47.8843 30.5158 46.8184 31.786 45.2875L30.8625 44.5213ZM26.2492 47.3509C26.1459 47.3805 26.0225 47.3981 25.875 47.3981V48.5981C26.1182 48.5981 26.3541 48.569 26.5789 48.5047L26.2492 47.3509ZM25.875 47.3981C25.5674 47.3981 25.4486 47.327 25.4085 47.2905C25.3792 47.2639 25.3148 47.187 25.3148 46.9435H24.1148C24.1148 47.403 24.2439 47.8535 24.6013 48.1784C24.9479 48.4935 25.4092 48.5981 25.875 48.5981V47.3981ZM25.3148 46.9435C25.3148 46.6744 25.447 46.3928 26.0277 46.1311L25.5348 45.037C24.6936 45.416 24.1148 46.0407 24.1148 46.9435H25.3148ZM26.0286 46.1307C27.8537 45.3047 29.1849 44.4994 29.9346 43.6968L29.0576 42.8776C28.4792 43.4969 27.3338 44.2228 25.5339 45.0375L26.0286 46.1307ZM29.9346 43.6967C30.8342 42.7335 31.2563 41.4654 31.2563 39.9591H30.0562C30.0562 41.234 29.7049 42.1846 29.0576 42.8777L29.9346 43.6967ZM31.2563 39.9591C31.2563 39.7795 31.2431 39.5268 31.2194 39.2111L30.0228 39.3008C30.046 39.6101 30.0562 39.8262 30.0562 39.9591H31.2563ZM31.2194 39.2111C31.1962 38.9018 31.1859 38.6858 31.1859 38.5528H29.9859C29.9859 38.7324 29.9991 38.9851 30.0228 39.3008L31.2194 39.2111ZM31.1859 38.5528C31.1859 37.953 31.28 37.6032 31.3896 37.4215C31.47 37.2884 31.5609 37.231 31.7461 37.231V36.031C31.1578 36.031 30.6687 36.2938 30.3623 36.8013C30.0853 37.2603 29.9859 37.8714 29.9859 38.5528H31.1859ZM31.7461 37.231C31.9772 37.231 32.1178 37.3079 32.2354 37.4734C32.3786 37.6751 32.5069 38.0439 32.5541 38.6574L33.7506 38.5654C33.6962 37.8586 33.5394 37.2372 33.2138 36.7787C32.8627 36.2841 32.3509 36.031 31.7461 36.031V37.231Z" fill="white"/>
</svg>
