<svg width="40" height="33" viewBox="0 0 40 33" fill="none" xmlns="http://www.w3.org/2000/svg">
<path d="M0.604139 15.3501C4.69626 13.1048 9.26416 11.2307 13.5322 9.34716C20.8748 6.26203 28.2467 3.23036 35.6929 0.407908C37.1416 -0.0729807 39.7448 -0.543205 40 1.59541C39.8602 4.62272 39.2852 7.63231 38.8909 10.6419C37.8899 17.2603 36.733 23.8559 35.6048 30.4525C35.216 32.6499 32.4528 33.7873 30.6848 32.3811C26.4357 29.5221 22.154 26.6909 17.9592 23.7655C16.5851 22.3747 17.8593 20.3773 19.0865 19.3841C22.5861 15.9485 26.2976 13.0296 29.6143 9.41647C30.509 7.26437 27.8655 9.07808 26.9935 9.63387C22.2025 12.9227 17.5287 16.4123 12.4774 19.3028C9.89723 20.7176 6.88999 19.5085 4.31097 18.7191C1.99861 17.7654 -1.38994 16.8045 0.603906 15.3503L0.604139 15.3501Z" fill="white"/>
</svg>
