<svg width="35" height="31" viewBox="0 0 35 31" fill="none" xmlns="http://www.w3.org/2000/svg">
<path d="M35.8133 3.86181C35.5588 3.5978 35.165 3.52249 34.83 3.67657L34.688 3.74149C34.5677 3.79689 34.4474 3.85229 34.3262 3.90682C34.6785 3.34504 34.9581 2.7443 35.1511 2.12278C35.2585 1.78 35.1416 1.40518 34.8577 1.18359C34.5738 0.961989 34.1825 0.938617 33.8752 1.12646C32.5136 1.95399 31.2273 2.4699 29.8276 2.74862L29.1489 2.86375C30.9719 4.20286 32.1613 6.35565 32.1613 8.7915C32.1613 8.90144 32.1561 9.01656 32.1535 9.12823L32.2825 9.02435C34.9875 6.77028 35.9258 4.92825 35.9648 4.85121C36.1293 4.52141 36.0687 4.12496 35.8133 3.86181Z" fill="white"/>
<path d="M24.8045 1.43457C20.7413 1.43457 17.4467 4.72911 17.4467 8.79232V10.0908C6.89313 9.52464 4.02966 2.30019 4.02966 2.30019C4.02966 2.30019 2.73124 4.03142 2.73124 6.62828C2.73124 10.9564 6.19371 12.6876 6.19371 12.6876C3.59685 12.6876 1.86562 11.822 1.86562 11.822C1.86562 11.822 2.29843 16.5829 7.92494 18.7469L4.46247 19.6125C4.46247 19.6125 6.19371 22.6422 11.3874 23.9406C11.3874 23.9406 8.35775 26.5375 1 26.5375C1 26.5375 4.02966 30 12.253 30C26.5357 30 32.1622 16.5829 32.1622 8.79232C32.1622 4.72911 28.8677 1.43457 24.8045 1.43457Z" fill="white" stroke="white" stroke-width="1.5" stroke-miterlimit="10" stroke-linejoin="round"/>
</svg>
